<?xml version="1.0" encoding="UTF-8"?><svg id="uuid-e768d45e-b3bf-4f5c-a018-b311916da7af" xmlns="http://www.w3.org/2000/svg" viewBox="0 0 1080 452.75"><defs><style>.uuid-7c05765c-8d0c-42ec-a25c-300bd53bd0b0{fill:#fefcf8;}</style></defs><circle class="uuid-7c05765c-8d0c-42ec-a25c-300bd53bd0b0" cx="104.88" cy="296.05" r="8.19"/><circle class="uuid-7c05765c-8d0c-42ec-a25c-300bd53bd0b0" cx="962.95" cy="296.05" r="8.19"/><polygon class="uuid-7c05765c-8d0c-42ec-a25c-300bd53bd0b0" points="95.27 216.33 161.71 216.33 161.71 208.15 113 208.15 113 168.95 145.61 168.95 145.61 160.76 113 160.76 113 129.92 161.71 129.92 161.71 121.74 95.27 121.74 95.27 216.33"/><polygon class="uuid-7c05765c-8d0c-42ec-a25c-300bd53bd0b0" points="191.23 121.74 173.49 121.74 173.49 216.33 237.78 216.33 237.78 208.15 191.23 208.15 191.23 121.74"/><rect class="uuid-7c05765c-8d0c-42ec-a25c-300bd53bd0b0" x="245.17" y="121.74" width="17.73" height="94.59"/><polygon class="uuid-7c05765c-8d0c-42ec-a25c-300bd53bd0b0" points="271.76 129.92 305.21 129.92 305.21 216.33 322.94 216.33 322.94 129.92 356.39 129.92 356.39 121.74 271.76 121.74 271.76 129.92"/><polygon class="uuid-7c05765c-8d0c-42ec-a25c-300bd53bd0b0" points="365.1 216.33 431.55 216.33 431.55 208.15 382.84 208.15 382.84 168.95 415.45 168.95 415.45 160.76 382.84 160.76 382.84 129.92 431.55 129.92 431.55 121.74 365.1 121.74 365.1 216.33"/><path class="uuid-7c05765c-8d0c-42ec-a25c-300bd53bd0b0" d="M541.33,173.97c-2.51-2.25-5.39-4.34-8.57-6.22-3.12-1.85-6.36-3.66-9.63-5.39-3.25-1.72-6.44-3.41-9.58-5.08-3.08-1.64-5.86-3.36-8.27-5.11-2.36-1.71-4.27-3.56-5.68-5.48-1.36-1.84-2.02-3.81-2.02-6,0-1.56.33-3.11.99-4.61.65-1.5,1.67-2.87,3.01-4.09,1.35-1.23,3.08-2.23,5.12-2.99,2.05-.76,4.5-1.15,7.28-1.15,3.16,0,6.03.44,8.53,1.3,2.48.86,4.7,2.09,6.59,3.67,1.9,1.59,3.55,3.52,4.92,5.76,1.39,2.26,2.55,4.8,3.45,7.54l.38,1.16,9.95-4.54-.3-.93c-1.14-3.57-2.67-6.76-4.53-9.48-1.88-2.75-4.2-5.09-6.9-6.97-2.69-1.87-5.86-3.31-9.4-4.27-3.52-.95-7.55-1.43-11.99-1.43-4.93,0-9.37.65-13.21,1.94-3.85,1.29-7.16,3.11-9.81,5.4-2.67,2.31-4.72,5.07-6.11,8.23-1.38,3.15-2.08,6.6-2.08,10.26s.78,7.03,2.32,9.89c1.52,2.81,3.52,5.39,5.97,7.67,2.42,2.25,5.22,4.32,8.31,6.14,3.03,1.78,6.17,3.51,9.36,5.15,3.15,1.62,6.25,3.25,9.29,4.87,2.97,1.59,5.65,3.3,7.96,5.09,2.26,1.75,4.12,3.71,5.51,5.8,1.34,2.02,2.01,4.36,2.01,6.96,0,2.16-.49,4.07-1.45,5.67-.99,1.65-2.31,3.06-3.94,4.19-1.65,1.15-3.56,2.04-5.66,2.63-4.95,1.39-10.2,1.1-14.65-.37-2.54-.84-4.89-2.06-6.97-3.63-2.08-1.57-3.93-3.51-5.51-5.78-1.58-2.27-2.85-4.89-3.79-7.79l-.36-1.13-10.35,4.26.34.98c1.24,3.52,2.86,6.69,4.81,9.44,1.97,2.76,4.37,5.14,7.13,7.06,2.76,1.92,5.98,3.4,9.56,4.41,3.56,1,7.67,1.5,12.21,1.5,5.57,0,10.54-.72,14.77-2.15,4.25-1.43,7.87-3.41,10.75-5.89,2.9-2.49,5.11-5.46,6.56-8.83,1.45-3.35,2.18-6.98,2.18-10.78,0-3.43-.8-6.58-2.37-9.36-1.54-2.72-3.61-5.25-6.15-7.52Z"/><path class="uuid-7c05765c-8d0c-42ec-a25c-300bd53bd0b0" d="M620.61,128.81c-3.23-2.32-7.06-4.1-11.39-5.29-4.31-1.18-8.97-1.78-13.88-1.78h-30.36v94.59h17.73v-42.49c.64.11,1.36.21,2.17.32,1.41.19,2.95.35,4.58.49,1.62.14,3.34.25,5.14.32,1.77.07,3.5.1,5.13.1,3.85,0,7.67-.52,11.37-1.54,3.73-1.03,7.12-2.62,10.07-4.73,2.98-2.13,5.4-4.85,7.22-8.09,1.83-3.26,2.75-7.12,2.75-11.48s-.95-8.36-2.82-11.78c-1.86-3.41-4.45-6.32-7.71-8.66ZM612.29,150.15c0,2.51-.39,4.91-1.16,7.13-.76,2.19-1.93,4.12-3.48,5.73-1.56,1.62-3.54,2.92-5.89,3.85-2.36.94-5.18,1.42-8.37,1.42-2.02,0-4.01-.19-5.92-.57-1.66-.33-3.26-.74-4.76-1.22v-35.74h9.91c2.73,0,5.33.47,7.72,1.39,2.38.92,4.49,2.24,6.26,3.92,1.76,1.68,3.17,3.72,4.17,6.08,1.01,2.36,1.52,5.05,1.52,8Z"/><path class="uuid-7c05765c-8d0c-42ec-a25c-300bd53bd0b0" d="M736.2,143.79c-2.25-3.59-4.97-6.91-8.08-9.87-3.12-2.95-6.65-5.52-10.51-7.62-3.85-2.1-8.05-3.75-12.48-4.91-4.44-1.16-9.15-1.74-14-1.74s-9.57.59-14,1.74c-4.43,1.16-8.62,2.81-12.45,4.91-3.83,2.1-7.36,4.67-10.5,7.62-3.15,2.96-5.87,6.28-8.09,9.87-2.22,3.59-3.97,7.53-5.17,11.7-1.21,4.17-1.82,8.56-1.82,13.06,0,6.86,1.36,13.4,4.03,19.43,2.67,6.03,6.39,11.37,11.04,15.88,4.65,4.51,10.21,8.12,16.51,10.71,6.31,2.6,13.19,3.91,20.45,3.91,4.86,0,9.57-.6,14.01-1.78,4.43-1.18,8.64-2.88,12.49-5.05,3.85-2.17,7.38-4.81,10.5-7.83,3.12-3.02,5.83-6.42,8.08-10.11,2.25-3.69,4-7.71,5.2-11.94,1.21-4.24,1.82-8.69,1.82-13.23s-.61-8.89-1.82-13.06c-1.2-4.16-2.96-8.1-5.21-11.7ZM722.78,168.55c0,6.29-.7,12.15-2.09,17.42-1.38,5.24-3.44,9.83-6.14,13.65-2.68,3.79-6.01,6.79-9.91,8.9-3.88,2.11-8.43,3.18-13.52,3.18s-9.78-1.07-13.66-3.18c-3.89-2.11-7.21-5.11-9.87-8.9-2.68-3.82-4.72-8.41-6.07-13.65-1.36-5.27-2.06-11.14-2.06-17.42s.69-12.03,2.05-17.21c1.35-5.14,3.39-9.63,6.07-13.33,2.65-3.67,5.97-6.56,9.86-8.59,3.89-2.02,8.49-3.05,13.67-3.05s9.65,1.03,13.53,3.05c3.9,2.03,7.23,4.92,9.9,8.59,2.69,3.7,4.76,8.19,6.13,13.33,1.39,5.18,2.09,10.97,2.09,17.21Z"/><path class="uuid-7c05765c-8d0c-42ec-a25c-300bd53bd0b0" d="M811.39,167.95c2.87-1.51,5.37-3.33,7.42-5.43,2.06-2.11,3.68-4.5,4.82-7.12,1.15-2.64,1.73-5.5,1.73-8.52,0-3.63-.75-7.04-2.23-10.13-1.49-3.09-3.72-5.79-6.63-8.03-2.89-2.21-6.53-3.95-10.82-5.17-4.26-1.21-9.26-1.82-14.86-1.82h-33.15v94.59h17.73v-43.41h9.22l32.12,43.41h20.8l-34-45.27c2.82-.81,5.45-1.85,7.86-3.12ZM804.67,155.17c-1.13,2.26-2.73,4.21-4.75,5.8-2.05,1.61-4.51,2.87-7.32,3.75-2.83.89-5.96,1.34-9.32,1.34h-7.89v-36.34h12.56c2.68,0,5.19.44,7.44,1.32,2.25.87,4.22,2.1,5.84,3.64,1.62,1.53,2.89,3.41,3.78,5.58.89,2.18,1.35,4.62,1.35,7.25,0,2.83-.57,5.41-1.7,7.66Z"/><polygon class="uuid-7c05765c-8d0c-42ec-a25c-300bd53bd0b0" points="826.89 129.92 860.34 129.92 860.34 216.33 878.08 216.33 878.08 129.92 911.52 129.92 911.52 121.74 826.89 121.74 826.89 129.92"/><path class="uuid-7c05765c-8d0c-42ec-a25c-300bd53bd0b0" d="M976.21,173.97c-2.51-2.25-5.39-4.34-8.57-6.22-3.12-1.85-6.36-3.66-9.63-5.39-3.25-1.72-6.44-3.41-9.58-5.08-3.08-1.64-5.86-3.36-8.27-5.11-2.36-1.71-4.27-3.56-5.68-5.48-1.36-1.84-2.02-3.81-2.02-6,0-1.56.33-3.11.99-4.61.65-1.5,1.67-2.87,3.01-4.09,1.35-1.23,3.08-2.23,5.12-2.99,2.05-.76,4.5-1.15,7.28-1.15,3.16,0,6.03.44,8.53,1.3,2.48.86,4.7,2.09,6.59,3.67,1.89,1.59,3.55,3.52,4.92,5.76,1.39,2.26,2.55,4.8,3.45,7.54l.38,1.16,9.95-4.54-.3-.93c-1.14-3.57-2.67-6.76-4.53-9.48-1.88-2.75-4.2-5.09-6.9-6.97-2.69-1.87-5.85-3.31-9.4-4.27-3.52-.95-7.55-1.43-11.99-1.43-4.93,0-9.37.65-13.21,1.94-3.85,1.29-7.16,3.11-9.81,5.4-2.67,2.31-4.72,5.07-6.11,8.23-1.38,3.15-2.08,6.6-2.08,10.26s.78,7.03,2.33,9.89c1.51,2.81,3.52,5.39,5.97,7.67,2.42,2.25,5.22,4.32,8.31,6.14,3.03,1.78,6.17,3.51,9.36,5.15,3.16,1.62,6.25,3.25,9.29,4.87,2.97,1.59,5.65,3.3,7.96,5.09,2.27,1.75,4.12,3.71,5.51,5.8,1.34,2.02,2.01,4.36,2.01,6.96,0,2.16-.49,4.07-1.45,5.67-.99,1.65-2.31,3.06-3.94,4.19-1.66,1.15-3.56,2.04-5.66,2.63-4.95,1.39-10.2,1.1-14.65-.37-2.54-.84-4.89-2.06-6.97-3.63-2.08-1.57-3.93-3.51-5.51-5.78-1.58-2.27-2.85-4.89-3.79-7.79l-.36-1.13-10.35,4.26.34.98c1.24,3.52,2.86,6.69,4.81,9.44,1.97,2.76,4.37,5.14,7.13,7.06,2.76,1.92,5.98,3.4,9.56,4.41,3.56,1,7.67,1.5,12.21,1.5,5.58,0,10.54-.72,14.78-2.15,4.25-1.43,7.87-3.41,10.75-5.89,2.9-2.49,5.11-5.46,6.56-8.83,1.45-3.35,2.18-6.98,2.18-10.78,0-3.43-.8-6.58-2.37-9.36-1.54-2.72-3.61-5.25-6.15-7.52Z"/><polygon class="uuid-7c05765c-8d0c-42ec-a25c-300bd53bd0b0" points="191.2 311.4 161.96 253.77 147.48 253.77 147.48 331.33 154.94 331.33 154.94 270.9 185.77 331.33 189.51 331.33 219.53 271.33 219.53 331.33 234.13 331.33 234.13 253.77 219.88 253.77 191.2 311.4"/><path class="uuid-7c05765c-8d0c-42ec-a25c-300bd53bd0b0" d="M280.52,252.05h-4.35l-37.36,79.28h8.39l11.94-25.25h31.36l11.54,25.25h14.95l-36.24-78.75-.24-.52ZM287.34,299.36h-25.12l12.74-26.97,12.38,26.97Z"/><polygon class="uuid-7c05765c-8d0c-42ec-a25c-300bd53bd0b0" points="379.07 308.38 330.41 254.07 330.15 253.77 321.7 253.77 321.7 331.33 329.27 331.33 329.27 272.48 382.19 333.1 386.47 333.1 386.47 253.77 379.07 253.77 379.07 308.38"/><path class="uuid-7c05765c-8d0c-42ec-a25c-300bd53bd0b0" d="M432.85,252.05h-4.35l-37.36,79.28h8.39l11.94-25.25h31.36l11.54,25.25h14.95l-36.24-78.75-.24-.52ZM439.68,299.36h-25.12l12.74-26.97,12.38,26.97Z"/><path class="uuid-7c05765c-8d0c-42ec-a25c-300bd53bd0b0" d="M517.97,296.99h14.34v25.23c-1.96,1.48-4.17,2.64-6.59,3.45-2.56.86-5.48,1.3-8.68,1.3-4.43,0-8.65-.79-12.52-2.36-3.87-1.57-7.27-3.83-10.12-6.74-2.85-2.91-5.13-6.49-6.78-10.64-1.65-4.16-2.48-8.9-2.48-14.1s.77-9.9,2.29-14.06c1.51-4.15,3.65-7.74,6.36-10.67,2.7-2.92,5.96-5.19,9.69-6.75,3.74-1.57,7.88-2.36,12.31-2.36,4.85,0,9.2,1.37,12.93,4.09,3.77,2.74,7.27,7.16,10.39,13.14l.46.89,7.04-4.69-.45-.74c-1.59-2.59-3.51-5.11-5.71-7.48-2.21-2.39-4.78-4.52-7.63-6.35-2.85-1.82-6.06-3.31-9.52-4.41-3.48-1.11-7.31-1.67-11.39-1.67s-8.33.51-12.12,1.52c-3.79,1.01-7.34,2.44-10.55,4.26-3.21,1.82-6.14,4.02-8.7,6.54-2.56,2.52-4.76,5.34-6.54,8.38-1.78,3.04-3.17,6.33-4.12,9.76-.95,3.43-1.43,7-1.43,10.61s.51,7.22,1.52,10.6c1.01,3.37,2.46,6.58,4.3,9.53,1.85,2.95,4.12,5.68,6.75,8.1,2.64,2.42,5.63,4.53,8.9,6.27,3.27,1.74,6.87,3.1,10.69,4.05,3.82.95,7.91,1.43,12.16,1.43,3.97,0,7.58-.16,10.72-.49,3.15-.33,6.08-.8,8.71-1.42,2.64-.62,5.13-1.4,7.42-2.33,2.26-.92,4.54-1.99,6.77-3.18l.48-.25v-34.75h-28.88v6.31Z"/><polygon class="uuid-7c05765c-8d0c-42ec-a25c-300bd53bd0b0" points="560.97 331.33 615.45 331.33 615.45 324.62 575.51 324.62 575.51 292.48 602.25 292.48 602.25 285.76 575.51 285.76 575.51 260.48 615.45 260.48 615.45 253.77 560.97 253.77 560.97 331.33"/><polygon class="uuid-7c05765c-8d0c-42ec-a25c-300bd53bd0b0" points="668.83 311.4 639.59 253.77 625.11 253.77 625.11 331.33 632.57 331.33 632.57 270.9 663.4 331.33 667.13 331.33 697.16 271.33 697.16 331.33 711.76 331.33 711.76 253.77 697.5 253.77 668.83 311.4"/><polygon class="uuid-7c05765c-8d0c-42ec-a25c-300bd53bd0b0" points="727.02 331.33 781.5 331.33 781.5 324.62 741.56 324.62 741.56 292.48 768.3 292.48 768.3 285.76 741.56 285.76 741.56 260.48 781.5 260.48 781.5 253.77 727.02 253.77 727.02 331.33"/><polygon class="uuid-7c05765c-8d0c-42ec-a25c-300bd53bd0b0" points="848.52 308.38 799.87 254.07 799.6 253.77 791.16 253.77 791.16 331.33 798.73 331.33 798.73 272.48 851.64 333.1 855.92 333.1 855.92 253.77 848.52 253.77 848.52 308.38"/><polygon class="uuid-7c05765c-8d0c-42ec-a25c-300bd53bd0b0" points="863.13 253.77 863.13 260.48 890.55 260.48 890.55 331.33 905.09 331.33 905.09 260.48 932.52 260.48 932.52 253.77 863.13 253.77"/></svg>