<?xml version="1.0" encoding="UTF-8"?><svg id="uuid-ec391065-074e-43a4-ac12-0f0d5dc739f0" xmlns="http://www.w3.org/2000/svg" viewBox="0 0 1401.71 452.75"><defs><style>.uuid-a87b6a1d-3caa-4b14-839a-bc160ed34da8{fill:#fefcf8;}</style></defs><circle class="uuid-a87b6a1d-3caa-4b14-839a-bc160ed34da8" cx="92.96" cy="232.59" r="6.22"/><circle class="uuid-a87b6a1d-3caa-4b14-839a-bc160ed34da8" cx="1308.75" cy="232.59" r="6.22"/><polygon class="uuid-a87b6a1d-3caa-4b14-839a-bc160ed34da8" points="142.55 254.96 182.87 254.96 182.87 249.99 153.31 249.99 153.31 226.2 173.1 226.2 173.1 221.23 153.31 221.23 153.31 202.52 182.87 202.52 182.87 197.55 142.55 197.55 142.55 254.96"/><polygon class="uuid-a87b6a1d-3caa-4b14-839a-bc160ed34da8" points="200.78 197.55 190.02 197.55 190.02 254.96 229.03 254.96 229.03 249.99 200.78 249.99 200.78 197.55"/><rect class="uuid-a87b6a1d-3caa-4b14-839a-bc160ed34da8" x="233.52" y="197.55" width="10.76" height="57.41"/><polygon class="uuid-a87b6a1d-3caa-4b14-839a-bc160ed34da8" points="249.66 202.52 269.96 202.52 269.96 254.96 280.72 254.96 280.72 202.52 301.02 202.52 301.02 197.55 249.66 197.55 249.66 202.52"/><polygon class="uuid-a87b6a1d-3caa-4b14-839a-bc160ed34da8" points="306.31 254.96 346.63 254.96 346.63 249.99 317.07 249.99 317.07 226.2 336.86 226.2 336.86 221.23 317.07 221.23 317.07 202.52 346.63 202.52 346.63 197.55 306.31 197.55 306.31 254.96"/><path class="uuid-a87b6a1d-3caa-4b14-839a-bc160ed34da8" d="M402.91,229.25c-1.52-1.36-3.27-2.63-5.2-3.78-1.89-1.12-3.86-2.22-5.84-3.27-1.97-1.04-3.91-2.07-5.81-3.09-1.87-1-3.56-2.04-5.02-3.1-1.43-1.04-2.59-2.16-3.45-3.32-.82-1.12-1.22-2.31-1.22-3.64,0-.95.2-1.89.6-2.8.4-.91,1.01-1.74,1.82-2.48.82-.74,1.87-1.35,3.11-1.82,1.24-.46,2.73-.7,4.42-.7,1.92,0,3.66.27,5.18.79,1.51.52,2.85,1.27,4,2.23,1.15.96,2.16,2.14,2.99,3.5.84,1.37,1.55,2.91,2.09,4.58l.23.71,6.04-2.75-.18-.56c-.69-2.16-1.62-4.1-2.75-5.76-1.14-1.67-2.55-3.09-4.19-4.23-1.63-1.14-3.55-2.01-5.7-2.59-2.14-.58-4.58-.87-7.28-.87-2.99,0-5.69.4-8.02,1.18-2.34.78-4.34,1.89-5.95,3.28-1.62,1.4-2.87,3.08-3.71,4.99-.84,1.91-1.26,4.01-1.26,6.23s.47,4.26,1.41,6c.92,1.71,2.14,3.27,3.62,4.65,1.47,1.37,3.17,2.62,5.04,3.72,1.84,1.08,3.75,2.13,5.68,3.13,1.91.98,3.79,1.97,5.64,2.96,1.8.96,3.43,2,4.83,3.09,1.37,1.06,2.5,2.25,3.34,3.52.81,1.22,1.22,2.64,1.22,4.22,0,1.31-.3,2.47-.88,3.44-.6,1-1.4,1.86-2.39,2.54-1,.7-2.16,1.24-3.44,1.6-3,.84-6.19.67-8.89-.22-1.54-.51-2.97-1.25-4.23-2.2-1.26-.95-2.39-2.13-3.34-3.51-.96-1.38-1.73-2.97-2.3-4.73l-.22-.68-6.28,2.59.21.6c.75,2.14,1.73,4.06,2.92,5.73,1.19,1.68,2.65,3.12,4.33,4.28,1.67,1.16,3.63,2.06,5.8,2.67,2.16.61,4.66.91,7.41.91,3.38,0,6.4-.44,8.97-1.3,2.58-.87,4.77-2.07,6.52-3.57,1.76-1.51,3.1-3.32,3.98-5.36.88-2.03,1.32-4.23,1.32-6.54,0-2.08-.48-3.99-1.44-5.68-.93-1.65-2.19-3.18-3.73-4.57Z"/><path class="uuid-a87b6a1d-3caa-4b14-839a-bc160ed34da8" d="M451.03,201.84c-1.96-1.41-4.29-2.49-6.91-3.21-2.61-.72-5.45-1.08-8.42-1.08h-18.43v57.41h10.76v-25.79c.39.07.82.13,1.32.2.85.11,1.79.22,2.78.3.98.08,2.03.15,3.12.19,1.08.04,2.12.06,3.11.06,2.33,0,4.66-.31,6.9-.93,2.27-.63,4.32-1.59,6.11-2.87,1.81-1.29,3.28-2.94,4.38-4.91,1.11-1.98,1.67-4.32,1.67-6.96s-.58-5.07-1.71-7.15c-1.13-2.07-2.7-3.83-4.68-5.25ZM445.98,214.79c0,1.52-.24,2.98-.7,4.33-.46,1.33-1.17,2.5-2.11,3.48-.94.98-2.15,1.77-3.57,2.34-1.43.57-3.14.86-5.08.86-1.22,0-2.43-.12-3.59-.35-1.01-.2-1.98-.45-2.89-.74v-21.69h6.02c1.66,0,3.24.28,4.69.84,1.45.56,2.73,1.36,3.8,2.38,1.07,1.02,1.92,2.26,2.53,3.69.61,1.43.92,3.07.92,4.86Z"/><path class="uuid-a87b6a1d-3caa-4b14-839a-bc160ed34da8" d="M521.18,210.93c-1.36-2.18-3.01-4.2-4.91-5.99-1.89-1.79-4.04-3.35-6.38-4.63-2.34-1.27-4.88-2.28-7.57-2.98-2.69-.7-5.55-1.06-8.5-1.06s-5.81.36-8.5,1.06c-2.69.7-5.23,1.7-7.55,2.98-2.32,1.28-4.47,2.83-6.37,4.62-1.91,1.79-3.56,3.81-4.91,5.99-1.35,2.18-2.41,4.57-3.14,7.1-.73,2.53-1.11,5.2-1.11,7.92,0,4.16.82,8.13,2.45,11.79,1.62,3.66,3.88,6.9,6.7,9.64,2.82,2.74,6.2,4.93,10.02,6.5,3.83,1.58,8,2.38,12.41,2.38,2.95,0,5.81-.36,8.5-1.08,2.69-.72,5.24-1.75,7.58-3.07,2.34-1.32,4.48-2.92,6.37-4.75,1.89-1.83,3.54-3.9,4.9-6.14,1.36-2.24,2.43-4.68,3.16-7.25.73-2.57,1.1-5.27,1.1-8.03s-.37-5.39-1.11-7.92c-.73-2.53-1.8-4.92-3.16-7.1ZM513.03,225.96c0,3.81-.43,7.37-1.27,10.57-.84,3.18-2.09,5.97-3.73,8.29-1.63,2.3-3.65,4.12-6.01,5.4-2.36,1.28-5.12,1.93-8.2,1.93s-5.93-.65-8.29-1.93c-2.36-1.28-4.38-3.1-5.99-5.4-1.62-2.32-2.86-5.11-3.69-8.29-.83-3.2-1.25-6.76-1.25-10.58s.42-7.3,1.25-10.45c.82-3.12,2.06-5.84,3.68-8.09,1.61-2.23,3.62-3.98,5.98-5.21,2.36-1.23,5.15-1.85,8.3-1.85s5.85.62,8.21,1.85c2.36,1.23,4.39,2.98,6.01,5.21,1.63,2.25,2.89,4.97,3.72,8.09.84,3.14,1.27,6.66,1.27,10.44Z"/><path class="uuid-a87b6a1d-3caa-4b14-839a-bc160ed34da8" d="M566.81,225.59c1.74-.92,3.26-2.02,4.5-3.3,1.25-1.28,2.23-2.73,2.93-4.32.7-1.6,1.05-3.34,1.05-5.17,0-2.2-.46-4.27-1.36-6.15-.9-1.88-2.26-3.52-4.02-4.87-1.75-1.34-3.96-2.4-6.57-3.14-2.58-.73-5.62-1.1-9.02-1.1h-20.12v57.41h10.76v-26.35h5.6l19.5,26.35h12.62l-20.64-27.47c1.71-.49,3.31-1.13,4.77-1.89ZM562.74,217.83c-.69,1.37-1.66,2.55-2.88,3.52-1.24.97-2.74,1.74-4.44,2.28-1.72.54-3.62.82-5.66.82h-4.79v-22.06h7.62c1.63,0,3.15.27,4.52.8,1.37.53,2.56,1.27,3.55,2.21.98.93,1.76,2.07,2.29,3.39.54,1.32.82,2.8.82,4.4,0,1.72-.35,3.28-1.03,4.65Z"/><polygon class="uuid-a87b6a1d-3caa-4b14-839a-bc160ed34da8" points="576.22 202.52 596.52 202.52 596.52 254.96 607.28 254.96 607.28 202.52 627.58 202.52 627.58 197.55 576.22 197.55 576.22 202.52"/><path class="uuid-a87b6a1d-3caa-4b14-839a-bc160ed34da8" d="M666.84,229.25c-1.52-1.36-3.27-2.63-5.2-3.78-1.89-1.12-3.86-2.22-5.84-3.27-1.97-1.04-3.91-2.07-5.81-3.09-1.87-1-3.56-2.04-5.02-3.1-1.43-1.04-2.59-2.16-3.45-3.32-.82-1.12-1.22-2.31-1.22-3.64,0-.95.2-1.89.6-2.8.4-.91,1.01-1.74,1.82-2.48.82-.74,1.87-1.35,3.11-1.82,1.24-.46,2.73-.7,4.42-.7,1.92,0,3.66.27,5.17.79,1.51.52,2.85,1.27,4,2.23,1.15.96,2.16,2.14,2.99,3.5.84,1.37,1.55,2.91,2.09,4.58l.23.71,6.04-2.75-.18-.56c-.69-2.16-1.62-4.1-2.75-5.76-1.14-1.67-2.55-3.09-4.19-4.23-1.63-1.14-3.55-2.01-5.7-2.59-2.14-.58-4.58-.87-7.28-.87-2.99,0-5.69.4-8.02,1.18-2.34.78-4.34,1.89-5.95,3.28-1.62,1.4-2.87,3.08-3.71,4.99-.84,1.91-1.26,4.01-1.26,6.23s.47,4.26,1.41,6c.92,1.71,2.14,3.27,3.62,4.65,1.47,1.37,3.17,2.62,5.04,3.72,1.84,1.08,3.75,2.13,5.68,3.13,1.92.98,3.79,1.97,5.64,2.96,1.8.96,3.43,2,4.83,3.09,1.38,1.06,2.5,2.25,3.34,3.52.81,1.22,1.22,2.64,1.22,4.22,0,1.31-.3,2.47-.88,3.44-.6,1-1.4,1.86-2.39,2.54-1,.7-2.16,1.24-3.44,1.6-3,.84-6.19.67-8.89-.22-1.54-.51-2.97-1.25-4.23-2.2-1.26-.95-2.39-2.13-3.34-3.51-.96-1.38-1.73-2.97-2.3-4.73l-.22-.68-6.28,2.59.21.6c.75,2.14,1.73,4.06,2.92,5.73,1.19,1.68,2.65,3.12,4.33,4.28,1.67,1.16,3.63,2.06,5.8,2.67,2.16.61,4.66.91,7.41.91,3.38,0,6.4-.44,8.97-1.3,2.58-.87,4.77-2.07,6.52-3.57,1.76-1.51,3.1-3.32,3.98-5.36.88-2.03,1.32-4.23,1.32-6.54,0-2.08-.48-3.99-1.44-5.68-.93-1.65-2.19-3.18-3.73-4.57Z"/><polygon class="uuid-a87b6a1d-3caa-4b14-839a-bc160ed34da8" points="729.01 240.4 707.36 197.75 696.65 197.75 696.65 255.16 702.17 255.16 702.17 210.43 724.99 255.16 727.75 255.16 749.98 210.75 749.98 255.16 760.78 255.16 760.78 197.75 750.23 197.75 729.01 240.4"/><path class="uuid-a87b6a1d-3caa-4b14-839a-bc160ed34da8" d="M795.12,196.48h-3.22l-27.65,58.68h6.21l8.84-18.69h23.21l8.54,18.69h11.07l-26.82-58.29-.18-.39ZM800.17,231.5h-18.59l9.43-19.96,9.16,19.96Z"/><polygon class="uuid-a87b6a1d-3caa-4b14-839a-bc160ed34da8" points="868.06 238.17 832.05 197.97 831.85 197.75 825.6 197.75 825.6 255.16 831.2 255.16 831.2 211.6 870.37 256.47 873.53 256.47 873.53 197.75 868.06 197.75 868.06 238.17"/><path class="uuid-a87b6a1d-3caa-4b14-839a-bc160ed34da8" d="M907.87,196.48h-3.22l-27.65,58.68h6.21l8.84-18.69h23.21l8.54,18.69h11.07l-26.82-58.29-.18-.39ZM912.92,231.5h-18.59l9.43-19.96,9.16,19.96Z"/><path class="uuid-a87b6a1d-3caa-4b14-839a-bc160ed34da8" d="M970.87,229.74h10.61v18.67c-1.45,1.09-3.09,1.95-4.88,2.55-1.89.64-4.06.96-6.43.96-3.28,0-6.4-.59-9.27-1.75-2.86-1.16-5.38-2.84-7.49-4.99-2.11-2.15-3.8-4.8-5.02-7.88-1.22-3.08-1.84-6.59-1.84-10.43s.57-7.33,1.69-10.41c1.12-3.07,2.7-5.73,4.71-7.9,2-2.16,4.41-3.84,7.17-5,2.77-1.16,5.83-1.75,9.11-1.75,3.59,0,6.81,1.02,9.57,3.02,2.79,2.03,5.38,5.3,7.69,9.73l.34.66,5.21-3.47-.33-.55c-1.18-1.92-2.6-3.78-4.22-5.54-1.64-1.77-3.54-3.35-5.65-4.7-2.11-1.35-4.48-2.45-7.05-3.27-2.58-.82-5.41-1.24-8.43-1.24s-6.16.38-8.97,1.12c-2.81.74-5.44,1.81-7.81,3.15-2.38,1.35-4.55,2.98-6.44,4.84-1.89,1.87-3.52,3.95-4.84,6.21-1.32,2.25-2.35,4.68-3.05,7.22-.7,2.54-1.06,5.18-1.06,7.85s.38,5.34,1.13,7.84c.75,2.5,1.82,4.87,3.18,7.06,1.37,2.19,3.05,4.2,5,6,1.95,1.79,4.17,3.35,6.59,4.64,2.42,1.29,5.08,2.3,7.91,3,2.83.7,5.86,1.06,9,1.06,2.94,0,5.61-.12,7.93-.36,2.33-.24,4.5-.6,6.45-1.05,1.95-.46,3.8-1.04,5.49-1.72,1.67-.68,3.36-1.47,5.01-2.36l.35-.19v-25.72h-21.38v4.67Z"/><polygon class="uuid-a87b6a1d-3caa-4b14-839a-bc160ed34da8" points="1002.7 255.16 1043.02 255.16 1043.02 250.19 1013.46 250.19 1013.46 226.4 1033.25 226.4 1033.25 221.43 1013.46 221.43 1013.46 202.72 1043.02 202.72 1043.02 197.75 1002.7 197.75 1002.7 255.16"/><polygon class="uuid-a87b6a1d-3caa-4b14-839a-bc160ed34da8" points="1082.53 240.4 1060.89 197.75 1050.17 197.75 1050.17 255.16 1055.69 255.16 1055.69 210.43 1078.51 255.16 1081.28 255.16 1103.5 210.75 1103.5 255.16 1114.31 255.16 1114.31 197.75 1103.75 197.75 1082.53 240.4"/><polygon class="uuid-a87b6a1d-3caa-4b14-839a-bc160ed34da8" points="1125.6 255.16 1165.92 255.16 1165.92 250.19 1136.36 250.19 1136.36 226.4 1156.15 226.4 1156.15 221.43 1136.36 221.43 1136.36 202.72 1165.92 202.72 1165.92 197.75 1125.6 197.75 1125.6 255.16"/><polygon class="uuid-a87b6a1d-3caa-4b14-839a-bc160ed34da8" points="1215.54 238.17 1179.52 197.97 1179.32 197.75 1173.07 197.75 1173.07 255.16 1178.68 255.16 1178.68 211.6 1217.84 256.47 1221.01 256.47 1221.01 197.75 1215.54 197.75 1215.54 238.17"/><polygon class="uuid-a87b6a1d-3caa-4b14-839a-bc160ed34da8" points="1226.34 197.75 1226.34 202.72 1246.64 202.72 1246.64 255.16 1257.4 255.16 1257.4 202.72 1277.7 202.72 1277.7 197.75 1226.34 197.75"/></svg>