<?xml version="1.0" encoding="UTF-8"?><svg id="uuid-bd9f095a-47c9-4578-9687-544d0b94f927" xmlns="http://www.w3.org/2000/svg" viewBox="0 0 1080 1080"><defs><style>.uuid-8ef25906-d981-4f13-af8c-fefff3c1ed65{fill:#fefcf8;}</style></defs><path class="uuid-8ef25906-d981-4f13-af8c-fefff3c1ed65" d="M318.41,776.66c.03-1.06.14-2.1.14-3.16s-.11-2.1-.14-3.19l-.26-6.87h19.13v2.27l-16.51-.57-.34,7.51,15.85-.32v2.27l-15.85-.29.34,7.51,16.51-.63v2.3h-19.13l.26-6.82Z"/><path class="uuid-8ef25906-d981-4f13-af8c-fefff3c1ed65" d="M337.62,783.82h-19.84l.27-7.18c.01-.46.04-.92.07-1.37.04-.59.07-1.18.07-1.78s-.04-1.18-.07-1.77c-.03-.46-.06-.93-.07-1.41l-.27-7.23h19.84v2.98l-16.53-.57-.31,6.79,15.83-.32v2.98l-15.83-.29.31,6.79,16.53-.63v3.01ZM318.51,783.12h18.42v-1.59l-16.5.63-.38-8.22,15.86.29v-1.56l-15.86.32.38-8.22,16.5.57v-1.56h-18.42l.25,6.51c.01.48.04.94.07,1.39.04.61.07,1.2.07,1.81s-.04,1.22-.08,1.82c-.03.45-.06.9-.07,1.35h0s-.25,6.46-.25,6.46Z"/><path class="uuid-8ef25906-d981-4f13-af8c-fefff3c1ed65" d="M340.01,783.24c.49-3.31,1.01-6.59,1.47-9.89.17-1.04.14-2.1.23-3.16l.55-6.76h2.65l2.91,6.67c.46,1.06.89,2.21,1.41,3.19,1.24,2.39,2.45,4.75,3.71,7.13l2.36-4.55c.46-.89.98-1.75,1.38-2.67,1.41-3.22,2.85-6.41,4.23-9.66l.03-.11h2.5v.2c.2,3.25.46,6.53.72,9.81.09,1.09.32,2.13.49,3.16l1.04,6.87h-2.65l-.49-6.79c-.09-1.01-.09-2.07-.23-3.13-.29-1.93-.57-3.82-.89-5.78-1.01,1.99-1.98,3.88-3.02,5.84-.52,1.04-.92,2.16-1.38,3.19l-2.93,6.67h-2.36l-2.88-6.62c-.46-1.04-.86-2.16-1.35-3.16-1.09-2.07-2.16-4.11-3.19-6.18-.32,1.98-.63,3.97-.92,5.95-.17,1.06-.14,2.13-.23,3.19l-.55,6.82h-2.62l.03-.23Z"/><path class="uuid-8ef25906-d981-4f13-af8c-fefff3c1ed65" d="M366.07,783.82h-3.37l-.51-7.11c-.03-.38-.05-.78-.07-1.18-.03-.63-.07-1.29-.15-1.93-.23-1.57-.47-3.13-.72-4.72-.88,1.73-1.7,3.31-2.54,4.89-.31.62-.59,1.3-.85,1.95-.17.41-.34.82-.52,1.22l-3.02,6.88h-2.81l-2.97-6.82c-.19-.43-.37-.87-.55-1.31-.25-.62-.51-1.26-.79-1.84-1.08-2.04-1.93-3.69-2.71-5.22-.26,1.63-.51,3.26-.75,4.88-.11.66-.14,1.34-.16,1.99-.02.39-.03.79-.07,1.18l-.57,7.13h-3.33l.08-.63c.18-1.19.35-2.37.53-3.55.32-2.11.64-4.22.93-6.34.11-.65.14-1.3.16-1.99.02-.38.03-.77.06-1.16l.57-7.08h3.2l3,6.88c.14.31.27.63.4.96.31.76.64,1.54.99,2.21l.95,1.83c.81,1.57,1.62,3.14,2.45,4.71l2.05-3.96c.15-.3.31-.59.47-.88.31-.57.64-1.17.9-1.77.47-1.09.95-2.17,1.43-3.25.94-2.13,1.88-4.26,2.8-6.42l.07-.33h3.12v.55c.21,3.36.49,6.92.72,9.78.06.77.2,1.53.33,2.27.05.29.11.58.15.87l1.1,7.28ZM363.34,783.12h1.92l-.98-6.47c-.05-.28-.1-.56-.15-.85-.14-.75-.28-1.53-.34-2.34-.22-2.83-.5-6.34-.71-9.69h-1.92c-.91,2.16-1.83,4.24-2.76,6.33-.48,1.08-.96,2.16-1.43,3.24-.27.63-.61,1.24-.93,1.83-.16.29-.31.58-.46.87l-2.67,5.14-.31-.59c-.94-1.78-1.85-3.54-2.76-5.3l-.95-1.83c-.37-.7-.7-1.5-1.02-2.27-.13-.32-.26-.63-.4-.94l-2.81-6.46h-2.1l-.52,6.44c-.03.38-.05.76-.06,1.13-.03.68-.06,1.38-.17,2.06-.29,2.11-.61,4.22-.93,6.33-.17,1.13-.34,2.25-.51,3.38h1.9l.52-6.5c.03-.39.05-.77.06-1.16.03-.67.06-1.37.17-2.07.29-1.98.6-3.97.92-5.95l.17-1.07.48.97c.9,1.79,1.88,3.7,3.19,6.18.3.61.56,1.26.82,1.89.18.44.36.87.54,1.29l2.79,6.41h1.9l2.84-6.47c.18-.39.34-.8.51-1.21.27-.66.55-1.35.88-2,.99-1.87,1.95-3.72,3.02-5.84l.48-.95.17,1.06c.32,1.96.61,3.86.89,5.79.09.68.13,1.35.16,1.99.02.39.04.78.07,1.16l.47,6.47Z"/><path class="uuid-8ef25906-d981-4f13-af8c-fefff3c1ed65" d="M370.15,783.01c0-1.04.11-2.1.17-3.19.11-2.07.23-4.2.23-6.33,0-3.22-.29-6.41-.4-9.64v-.43h12.63c3.25,0,6.5,1.84,6.5,5.41s-3.25,5.44-6.5,5.44c-3.45,0-6.87.03-10.35.03l.37,9.18h-2.65v-.46ZM382.78,772.63c2.33,0,3.97-1.52,3.97-3.8s-1.67-3.77-3.97-3.77c-3.34,0-6.7.03-10.01.03l-.34,7.54h10.35Z"/><path class="uuid-8ef25906-d981-4f13-af8c-fefff3c1ed65" d="M373.16,783.82h-3.36v-.81c0-.69.05-1.37.1-2.09.03-.37.05-.74.07-1.12.11-1.94.23-4.13.23-6.31,0-2-.11-4.03-.22-5.99-.07-1.21-.14-2.42-.18-3.63v-.79h12.97c3.4,0,6.85,1.98,6.85,5.76s-3.44,5.78-6.85,5.78c-1.72,0-3.44,0-5.15.01-1.61,0-3.22.01-4.84.01l.37,9.18ZM370.5,783.12h1.94l-.37-9.18h.36c1.74,0,3.47,0,5.2-.01,1.72,0,3.43-.01,5.16-.01,3.06,0,6.15-1.75,6.15-5.09s-3.09-5.06-6.15-5.06h-12.28v.08c.04,1.2.11,2.4.18,3.6.11,1.97.22,4.01.22,6.03,0,2.2-.12,4.4-.23,6.35-.02.38-.05.76-.07,1.13-.05.71-.1,1.38-.1,2.05v.11ZM382.78,772.98h-10.72l.38-8.23h.33c1.65,0,3.31,0,4.98-.01,1.68,0,3.36-.01,5.03-.01,2.54,0,4.32,1.69,4.32,4.12s-1.78,4.14-4.32,4.14ZM372.79,772.28h9.99c2.17,0,3.62-1.39,3.62-3.45s-1.49-3.42-3.62-3.42c-1.67,0-3.35,0-5.03.01-1.56,0-3.11.01-4.65.01l-.31,6.84Z"/><path class="uuid-8ef25906-d981-4f13-af8c-fefff3c1ed65" d="M404.93,763.2c6.13,0,11.96,3.8,11.96,10.3s-5.87,10.27-11.96,10.27-11.96-3.77-11.96-10.27,5.84-10.3,11.96-10.3ZM404.93,781.2c4.98,0,10.1-2.3,10.1-7.71s-5.09-7.82-10.1-7.82-10.12,2.44-10.12,7.82,5.15,7.71,10.12,7.71Z"/><path class="uuid-8ef25906-d981-4f13-af8c-fefff3c1ed65" d="M404.93,784.11c-5.97,0-12.31-3.72-12.31-10.62s6.34-10.64,12.31-10.64,12.31,3.73,12.31,10.64-6.34,10.62-12.31,10.62ZM404.93,763.54c-5.63,0-11.62,3.49-11.62,9.95s5.99,9.92,11.62,9.92,11.62-3.48,11.62-9.92-5.98-9.95-11.62-9.95ZM404.93,781.55c-5.21,0-10.47-2.49-10.47-8.06s5.26-8.17,10.47-8.17,10.44,2.53,10.44,8.17-5.24,8.06-10.44,8.06ZM404.93,766.02c-4.87,0-9.78,2.31-9.78,7.47s4.91,7.36,9.78,7.36c4.5,0,9.75-1.93,9.75-7.36s-4.9-7.47-9.75-7.47Z"/><path class="uuid-8ef25906-d981-4f13-af8c-fefff3c1ed65" d="M424.4,776.83c-.46-1.04-.81-2.13-1.29-3.13-1.64-3.34-3.28-6.67-4.89-10.01l-.14-.26h2.91l.06.14c1.24,3.25,2.53,6.5,3.85,9.78.35.89.89,1.73,1.27,2.59l2.1,4.2,1.32-4.14c.29-.86.66-1.73.86-2.62.8-3.28,1.61-6.56,2.42-9.81l.06-.14,2.7.03.03.14c.75,3.25,1.55,6.53,2.33,9.78.2.92.58,1.75.83,2.62l1.32,4.14,2.1-4.2c.43-.86.95-1.7,1.29-2.59.32-.83.63-1.64.95-2.45l1.93-4.92c.32-.81.63-1.64.95-2.45l.06-.11h2.93l-.14.26c-1.64,3.34-3.25,6.67-4.92,10.01-.46,1.01-.86,2.1-1.29,3.13l-2.7,6.64h-2.47l-1.84-6.7c-.29-1.04-.49-2.13-.86-3.13-.6-1.87-1.29-3.68-1.93-5.58-.57,1.9-1.29,3.71-1.9,5.58-.38,1.01-.58,2.1-.86,3.13l-1.87,6.7h-2.42l-2.73-6.64Z"/><path class="uuid-8ef25906-d981-4f13-af8c-fefff3c1ed65" d="M441.52,783.82h-2.97l-1.91-6.96c-.1-.36-.19-.72-.27-1.08-.17-.68-.34-1.38-.58-2.03-.33-1.03-.69-2.03-1.04-3.04-.18-.51-.36-1.03-.54-1.55-.24.73-.49,1.44-.74,2.14-.29.81-.57,1.61-.84,2.43-.25.66-.42,1.37-.58,2.04-.09.36-.18.72-.27,1.08l-1.94,6.96h-2.91l-2.82-6.85c-.2-.46-.38-.92-.56-1.39-.22-.58-.46-1.18-.72-1.73l-.28-.56c-1.55-3.15-3.09-6.3-4.61-9.45l-.42-.76h3.74l.14.37c1.37,3.59,2.78,7.11,3.85,9.77.19.48.44.95.68,1.41.21.39.41.78.58,1.17l1.71,3.42,1.06-3.33c.09-.29.2-.57.3-.85.21-.57.42-1.16.55-1.74.81-3.28,1.61-6.56,2.42-9.81l.16-.41,3.22.04.08.42c.53,2.29,1.08,4.6,1.64,6.9l.69,2.87c.12.55.31,1.08.49,1.59.12.34.24.67.34,1.01l1.06,3.32,1.72-3.43c.15-.29.3-.58.46-.87.29-.55.6-1.11.82-1.68.27-.71.54-1.4.81-2.09l3.18-8.06h3.74l-.43.78c-.56,1.13-1.12,2.28-1.68,3.43-1.07,2.19-2.14,4.37-3.23,6.56-.29.64-.56,1.32-.83,2-.15.37-.3.75-.45,1.11l-2.79,6.86ZM439.07,783.12h1.97l2.62-6.43c.15-.36.3-.74.45-1.11.27-.69.55-1.38.85-2.04,1.1-2.2,2.16-4.38,3.23-6.57.52-1.07,1.05-2.14,1.57-3.21h-2.13l-2.97,7.62c-.27.68-.54,1.37-.81,2.08-.24.61-.55,1.2-.86,1.77-.15.28-.31.57-.45.85l-2.48,4.96-1.58-4.96c-.1-.33-.22-.66-.33-.98-.19-.53-.38-1.08-.51-1.67l-.69-2.86c-.55-2.27-1.09-4.54-1.61-6.79l-2.17-.03c-.79,3.18-1.58,6.43-2.38,9.68-.14.62-.36,1.23-.58,1.82-.1.28-.2.55-.29.83l-1.58,4.95-2.48-4.96c-.17-.4-.37-.77-.57-1.14-.25-.47-.51-.96-.71-1.48-1.07-2.64-2.47-6.14-3.83-9.7h-2.09c1.49,3.08,2.99,6.14,4.5,9.2l.28.56c.28.58.52,1.19.75,1.78.18.46.35.91.55,1.36h0s2.64,6.44,2.64,6.44h1.92l1.8-6.45c.1-.35.18-.7.27-1.06.17-.7.35-1.42.6-2.11.26-.81.55-1.62.84-2.43.36-1.02.73-2.07,1.05-3.13l.32-1.05.35,1.04c.29.86.58,1.7.88,2.54.36,1.01.72,2.02,1.05,3.04.25.67.43,1.39.6,2.09.09.36.17.71.27,1.06l1.77,6.45Z"/><path class="uuid-8ef25906-d981-4f13-af8c-fefff3c1ed65" d="M454.95,776.66c.03-1.06.14-2.1.14-3.16s-.11-2.1-.14-3.19l-.26-6.87h19.13v2.27l-16.51-.57-.34,7.51,15.85-.32v2.27l-15.85-.29.34,7.51,16.51-.63v2.3h-19.13l.26-6.82Z"/><path class="uuid-8ef25906-d981-4f13-af8c-fefff3c1ed65" d="M474.16,783.82h-19.83l.27-7.18c.01-.46.04-.92.07-1.37.04-.59.07-1.18.07-1.78s-.04-1.18-.07-1.77c-.03-.46-.06-.93-.07-1.41l-.27-7.23h19.83v2.98l-16.53-.57-.31,6.79,15.83-.32v2.98l-15.83-.29.31,6.79,16.53-.63v3.01ZM455.05,783.12h18.42v-1.59l-16.49.63-.38-8.22,15.86.29v-1.56l-15.86.32.38-8.22,16.49.57v-1.56h-18.42l.25,6.51c.01.48.04.94.07,1.39.04.61.07,1.2.07,1.81s-.04,1.22-.08,1.82c-.03.45-.06.9-.07,1.35h0s-.25,6.46-.25,6.46Z"/><path class="uuid-8ef25906-d981-4f13-af8c-fefff3c1ed65" d="M478.39,783.01c0-1.04.11-2.1.17-3.19.11-2.07.23-4.2.23-6.33,0-3.22-.32-6.41-.4-9.64v-.43h12.63c3.25,0,6.5,1.84,6.5,5.41s-3.19,5.44-6.5,5.44c-1.24,0-2.5,0-3.77.03l11.74,9.18h-4.29l-10.04-9.18h-4l.37,9.18h-2.65v-.46ZM491.02,772.63c2.3,0,3.97-1.52,3.97-3.8s-1.67-3.77-3.97-3.77c-3.34,0-6.7.03-10.01.03l-.34,7.54h10.35Z"/><path class="uuid-8ef25906-d981-4f13-af8c-fefff3c1ed65" d="M499.99,783.82h-5.43l-10.04-9.18h-3.5l.37,9.18h-3.36v-.81c0-.69.05-1.38.1-2.11.03-.36.05-.73.07-1.1.11-1.94.23-4.13.23-6.31,0-1.86-.11-3.74-.21-5.57-.08-1.33-.15-2.7-.19-4.06v-.79h12.97c3.4,0,6.85,1.98,6.85,5.76s-3.44,5.78-6.85,5.78h0c-.91,0-1.84,0-2.77.01l11.76,9.19ZM494.83,783.12h3.14l-11.71-9.15.97-.02c1.27-.03,2.54-.03,3.78-.03,3.06,0,6.15-1.75,6.15-5.09s-3.1-5.06-6.15-5.06h-12.28v.08c.04,1.34.11,2.71.19,4.03.11,1.83.21,3.73.21,5.6,0,2.2-.12,4.4-.23,6.35-.02.37-.05.75-.07,1.11-.05.71-.1,1.39-.1,2.06v.11h1.94l-.37-9.18h4.49l10.04,9.18ZM491.02,772.98h-10.72l.38-8.23h.33c1.65,0,3.31,0,4.98-.01,1.68,0,3.36-.01,5.03-.01,2.5,0,4.32,1.73,4.32,4.12s-1.78,4.14-4.32,4.14ZM481.03,772.28h9.99c2.13,0,3.62-1.42,3.62-3.45s-1.49-3.42-3.62-3.42c-1.67,0-3.35,0-5.02.01-1.56,0-3.11.01-4.65.01l-.31,6.84Z"/><path class="uuid-8ef25906-d981-4f13-af8c-fefff3c1ed65" d="M503.99,776.66c.03-1.06.14-2.1.14-3.16s-.11-2.1-.14-3.19l-.26-6.87h2.65l-.26,6.87c-.03,1.09-.14,2.13-.14,3.19s.12,2.1.14,3.16l.26,6.82h-2.65l.26-6.82Z"/><path class="uuid-8ef25906-d981-4f13-af8c-fefff3c1ed65" d="M506.74,783.82h-3.37l.27-7.18c.01-.46.04-.92.07-1.37.04-.59.07-1.18.07-1.78s-.04-1.18-.07-1.77c-.03-.46-.06-.93-.07-1.41l-.27-7.23h3.37l-.27,7.24c-.01.48-.04.95-.07,1.41-.04.59-.07,1.17-.07,1.77s.04,1.19.07,1.78c.03.46.06.91.07,1.38l.27,7.17ZM504.09,783.12h1.92l-.25-6.45c-.01-.46-.04-.91-.07-1.36-.04-.6-.08-1.21-.08-1.82s.04-1.21.08-1.81c.03-.46.06-.92.07-1.39l.25-6.52h-1.92l.25,6.51c.01.48.04.94.07,1.39.04.61.07,1.2.07,1.81s-.04,1.22-.08,1.82c-.03.45-.06.9-.07,1.35h0s-.25,6.46-.25,6.46Z"/><path class="uuid-8ef25906-d981-4f13-af8c-fefff3c1ed65" d="M512.99,776.66c.03-1.06.14-2.1.14-3.16s-.11-2.1-.14-3.19l-.26-6.87h2.39l5.78,6.59c3.05,3.54,6.3,6.9,9.58,10.21l.14-4.11c.03-.89.12-1.73.12-2.62,0-1.06-.12-2.1-.14-3.19l-.26-6.87h2.62l-.26,6.87c-.03,1.09-.11,2.13-.11,3.19s.09,2.13.11,3.16l.26,6.82h-2.36l-15.36-16.71-.14,4.14c-.03.86-.12,1.73-.12,2.59,0,1.06.12,2.1.14,3.16l.26,6.82h-2.65l.26-6.82Z"/><path class="uuid-8ef25906-d981-4f13-af8c-fefff3c1ed65" d="M533.32,783.82h-2.87l-.1-.11-14.78-16.09-.11,3.29c-.01.35-.03.69-.05,1.04-.03.51-.06,1.03-.06,1.54,0,.59.04,1.18.07,1.76.03.46.06.92.07,1.39l.27,7.17h-3.37l.27-7.18c.01-.46.04-.92.07-1.37.04-.59.07-1.18.07-1.78s-.04-1.18-.07-1.77c-.03-.46-.06-.93-.07-1.41l-.27-7.23h2.91l5.89,6.71c2.98,3.45,6.18,6.77,9,9.62l.11-3.31c.01-.36.03-.71.05-1.06.03-.51.06-1.02.06-1.55,0-.59-.04-1.18-.07-1.77-.03-.46-.06-.93-.07-1.42l-.27-7.23h3.34l-.27,7.24c-.01.44-.03.88-.05,1.32-.03.62-.06,1.24-.06,1.86s.03,1.28.06,1.91c.02.42.04.83.05,1.24l.27,7.17ZM530.75,783.12h1.85l-.25-6.45c-.01-.41-.03-.82-.05-1.23-.03-.64-.06-1.3-.06-1.95s.03-1.26.06-1.89c.02-.43.04-.86.05-1.31l.25-6.52h-1.9l.25,6.51c.01.48.04.94.07,1.39.04.6.08,1.2.08,1.81,0,.54-.03,1.06-.06,1.59-.02.34-.04.69-.05,1.04l-.17,4.92-.57-.57c-2.95-2.98-6.4-6.53-9.59-10.23l-5.68-6.47h-1.87l.25,6.51c.01.48.04.94.07,1.39.04.61.07,1.2.07,1.81s-.04,1.22-.08,1.82c-.03.45-.06.9-.07,1.35h0s-.25,6.46-.25,6.46h1.92l-.25-6.45c-.01-.46-.04-.92-.07-1.37-.04-.6-.08-1.2-.08-1.81,0-.53.03-1.06.06-1.58.02-.34.04-.68.05-1.02l.17-4.99,15.83,17.22Z"/><path class="uuid-8ef25906-d981-4f13-af8c-fefff3c1ed65" d="M543.63,772.69l16.11-.06v8.2h-.35c-2.93,2.04-6.5,2.96-10.07,2.96-6.07,0-11.16-4.14-11.16-10.3s5.06-10.3,11.16-10.3c3.48,0,7.13.78,9.86,3.05.03.03.06.06.09.09,0,.03.03.03.06.06l.11.12-1.29,2.24-.17-.2c-2.01-2.19-5.69-3.13-8.66-3.13-5.09,0-9.32,2.85-9.32,8.05s4.23,8.05,9.32,8.05c2.93,0,6.15-.75,8.48-2.5l.26-4.69-14.44.32v-1.96Z"/><path class="uuid-8ef25906-d981-4f13-af8c-fefff3c1ed65" d="M549.32,784.14c-6.56,0-11.51-4.58-11.51-10.64s4.95-10.64,11.51-10.64c2.89,0,6.98.54,10.09,3.13.05.05.09.08.12.12l.35.35-1.67,2.9-.49-.58c-2.05-2.22-5.8-3.01-8.39-3.01-4.47,0-8.97,2.38-8.97,7.7,0,5.69,4.83,7.71,8.97,7.71,3.14,0,6.1-.85,8.15-2.34l.23-4.15-14.42.32v-2.66l16.8-.06v8.89h-.58c-2.83,1.94-6.34,2.96-10.17,2.96ZM549.32,763.54c-6.16,0-10.81,4.28-10.81,9.95s4.65,9.95,10.81,9.95c3.73,0,7.14-1,9.87-2.9l.09-.06h.11v-7.5l-15.41.05v1.25l14.46-.32-.29,5.22-.13.1c-2.17,1.63-5.34,2.57-8.69,2.57-5.78,0-9.67-3.38-9.67-8.4s3.88-8.4,9.67-8.4c2.67,0,6.54.81,8.77,3.09l.91-1.58-.08-.05v-.06c-2.93-2.42-6.83-2.93-9.59-2.93Z"/><path class="uuid-8ef25906-d981-4f13-af8c-fefff3c1ed65" d="M571.56,783.18c1.58-3.34,3.25-6.64,4.89-9.98.49-1.01.83-2.1,1.29-3.16l2.73-6.62h2.39l2.73,6.62c.43,1.06.81,2.16,1.29,3.16,1.67,3.34,3.31,6.64,4.92,9.98l.14.29h-2.93l-2.13-5.49h-10.41l-2.16,5.49h-2.91l.14-.29ZM586.14,776.2c-.09-.23-.17-.43-.26-.66l-.49-1.32c-.09-.23-.17-.43-.26-.66-.35-.86-.86-1.73-1.27-2.56l-2.18-4.4-2.19,4.4c-.37.83-.92,1.7-1.27,2.56l-1.04,2.65h8.94Z"/><path class="uuid-8ef25906-d981-4f13-af8c-fefff3c1ed65" d="M592.51,783.82h-3.73l-2.13-5.49h-9.94l-2.16,5.49h-3.7l.39-.79c1.11-2.34,2.28-4.71,3.41-6.99.49-.99.98-1.99,1.48-2.99.28-.57.5-1.17.75-1.8.17-.45.35-.9.54-1.35l2.82-6.83h2.85l2.82,6.83c.14.34.27.68.4,1.02.27.71.56,1.45.89,2.13,1.45,2.91,3.18,6.38,4.92,9.98l.39.79ZM589.25,783.12h2.14c-1.71-3.53-3.39-6.91-4.81-9.76-.34-.71-.63-1.46-.91-2.18-.13-.33-.26-.67-.39-1.01l-2.64-6.4h-1.92l-2.65,6.4c-.19.44-.36.89-.53,1.33-.24.62-.48,1.25-.77,1.85-.49,1-.98,2-1.48,2.99-1.1,2.22-2.23,4.51-3.31,6.78h2.11l2.16-5.49h10.89l2.13,5.49ZM586.64,776.54h-9.95l1.22-3.12c.2-.5.47-1,.72-1.48.2-.37.39-.73.55-1.09l2.5-5.04,2.5,5.03c.15.31.31.61.47.92.29.54.58,1.1.81,1.67.05.13.09.24.14.36l.73,1.93c.05.12.09.24.14.36l.17.47ZM577.7,775.85h7.93l-.68-1.81c-.05-.12-.09-.24-.14-.36-.21-.52-.49-1.07-.77-1.59-.17-.32-.33-.63-.48-.94l-1.87-3.77-1.87,3.77c-.16.36-.36.74-.57,1.12-.25.46-.5.95-.69,1.41l-.85,2.17Z"/><path class="uuid-8ef25906-d981-4f13-af8c-fefff3c1ed65" d="M599.49,776.66c.03-1.04.11-2.1.11-3.16,0-.98-.09-1.99-.11-2.96l-.2-5.49-8.28.72v-2.33h19.1v2.33l-8.25-.72-.23,5.49c-.03.98-.11,1.99-.11,2.96,0,1.06.09,2.13.11,3.16l.26,6.82h-2.62l.23-6.82Z"/><path class="uuid-8ef25906-d981-4f13-af8c-fefff3c1ed65" d="M602.23,783.82h-3.34l.24-7.17c.01-.41.03-.82.05-1.24.03-.63.06-1.27.06-1.91,0-.58-.03-1.17-.06-1.77-.02-.4-.04-.79-.05-1.19l-.19-5.13-8.3.72v-3.06h19.79v3.06l-8.27-.72-.22,5.13c-.01.39-.03.8-.05,1.2-.03.58-.06,1.17-.06,1.75,0,.63.03,1.26.06,1.89.02.43.04.85.05,1.26l.27,7.17ZM599.62,783.12h1.9l-.25-6.45c-.01-.42-.03-.83-.05-1.25-.03-.64-.06-1.28-.06-1.92,0-.59.03-1.19.06-1.78.02-.4.04-.8.05-1.19l.25-5.86,8.24.72v-1.6h-18.4v1.6l8.27-.72.21,5.86c.01.39.03.78.05,1.17.03.6.06,1.21.06,1.8,0,.65-.03,1.3-.06,1.95-.02.41-.04.82-.05,1.23h0s-.22,6.46-.22,6.46Z"/><path class="uuid-8ef25906-d981-4f13-af8c-fefff3c1ed65" d="M614.79,776.66c.03-1.06.14-2.1.14-3.16s-.11-2.1-.14-3.19l-.26-6.87h2.65l-.37,9.12h15.7l-.37-9.12h2.62l-.26,6.87c-.03,1.09-.11,2.13-.11,3.19s.09,2.13.11,3.16l.26,6.82h-2.62l.37-9.09h-15.7l.37,9.09h-2.65l.26-6.82Z"/><path class="uuid-8ef25906-d981-4f13-af8c-fefff3c1ed65" d="M635.11,783.82h-3.34l.37-9.09h-14.98l.37,9.09h-3.37l.27-7.18c.01-.46.04-.92.07-1.37.04-.59.07-1.18.07-1.78s-.04-1.18-.07-1.77c-.03-.46-.06-.93-.07-1.41l-.27-7.23h3.37l-.37,9.12h14.98l-.37-9.12h3.34l-.27,7.24c-.01.44-.03.88-.05,1.32-.03.62-.06,1.24-.06,1.86s.03,1.28.06,1.91c.02.42.04.83.05,1.24l.27,7.17ZM632.49,783.12h1.89l-.25-6.45c-.01-.41-.03-.82-.05-1.23-.03-.64-.06-1.3-.06-1.95s.03-1.26.06-1.89c.02-.43.04-.86.05-1.31l.25-6.52h-1.89l.37,9.12h-16.43l.37-9.12h-1.92l.25,6.51c.01.48.04.94.07,1.39.04.61.07,1.2.07,1.81s-.04,1.22-.08,1.82c-.03.45-.06.9-.07,1.35h0s-.25,6.46-.25,6.46h1.92l-.37-9.09h16.43l-.37,9.09Z"/><path class="uuid-8ef25906-d981-4f13-af8c-fefff3c1ed65" d="M641.34,776.66c.03-1.06.14-2.1.14-3.16s-.11-2.1-.14-3.19l-.26-6.87h2.65l-.26,6.87c-.03,1.09-.14,2.13-.14,3.19,0,.98.06,1.96.12,2.9l.26,5.41,16.51-.63v2.3h-19.13l.26-6.82Z"/><path class="uuid-8ef25906-d981-4f13-af8c-fefff3c1ed65" d="M660.55,783.82h-19.83l.27-7.18c.01-.46.04-.92.07-1.37.04-.59.07-1.18.07-1.78s-.04-1.18-.07-1.77c-.03-.46-.06-.93-.07-1.41l-.27-7.23h3.37l-.27,7.24c-.01.48-.04.95-.07,1.42-.04.59-.07,1.17-.07,1.76,0,.94.05,1.86.12,2.88l.24,5.07,16.53-.63v3.01ZM641.44,783.12h18.42v-1.59l-16.49.63-.27-5.75c-.06-1.03-.12-1.96-.12-2.92,0-.6.04-1.2.07-1.8.03-.46.06-.93.07-1.4l.25-6.52h-1.92l.25,6.51c.01.48.04.94.07,1.39.04.61.07,1.2.07,1.81s-.04,1.22-.08,1.82c-.03.45-.06.9-.07,1.35h0s-.25,6.46-.25,6.46Z"/><path class="uuid-8ef25906-d981-4f13-af8c-fefff3c1ed65" d="M665.04,776.66c.03-1.06.14-2.1.14-3.16s-.11-2.1-.14-3.19l-.26-6.87h19.13v2.27l-16.51-.57-.34,7.51,15.85-.32v2.27l-15.85-.29.34,7.51,16.51-.63v2.3h-19.13l.26-6.82Z"/><path class="uuid-8ef25906-d981-4f13-af8c-fefff3c1ed65" d="M684.26,783.82h-19.83l.27-7.18c.01-.46.04-.92.07-1.37.04-.59.07-1.18.07-1.78s-.04-1.18-.07-1.77c-.03-.46-.06-.93-.07-1.41l-.27-7.23h19.83v2.98l-16.53-.57-.31,6.79,15.83-.32v2.98l-15.83-.29.31,6.79,16.53-.63v3.01ZM665.14,783.12h18.42v-1.59l-16.49.63-.38-8.22,15.86.29v-1.56l-15.86.32.38-8.22,16.49.57v-1.56h-18.42l.25,6.51c.01.48.04.94.07,1.39.04.61.07,1.2.07,1.81s-.04,1.22-.08,1.82c-.03.45-.06.9-.07,1.35h0s-.25,6.46-.25,6.46Z"/><path class="uuid-8ef25906-d981-4f13-af8c-fefff3c1ed65" d="M695.01,776.66c.03-1.04.11-2.1.11-3.16,0-.98-.09-1.99-.11-2.96l-.2-5.49-8.28.72v-2.33h19.1v2.33l-8.25-.72-.23,5.49c-.03.98-.11,1.99-.11,2.96,0,1.06.09,2.13.11,3.16l.26,6.82h-2.62l.23-6.82Z"/><path class="uuid-8ef25906-d981-4f13-af8c-fefff3c1ed65" d="M697.76,783.82h-3.34l.24-7.17c.01-.41.03-.82.05-1.24.03-.63.06-1.27.06-1.91,0-.58-.03-1.17-.06-1.77-.02-.4-.04-.79-.05-1.19l-.19-5.13-8.3.72v-3.06h19.79v3.06l-8.27-.72-.22,5.13c-.01.39-.03.79-.05,1.18-.03.59-.06,1.18-.06,1.77,0,.64.03,1.28.06,1.91.02.42.04.83.05,1.24l.27,7.17ZM695.14,783.12h1.9l-.25-6.45c-.01-.41-.03-.82-.05-1.23-.03-.64-.06-1.3-.06-1.95,0-.59.03-1.2.06-1.8.02-.39.04-.78.05-1.17l.25-5.86,8.24.72v-1.6h-18.4v1.6l8.27-.72.21,5.86c.01.39.03.78.05,1.17.03.6.06,1.21.06,1.8,0,.65-.03,1.3-.06,1.95-.02.41-.04.82-.05,1.23h0s-.22,6.46-.22,6.46Z"/><path class="uuid-8ef25906-d981-4f13-af8c-fefff3c1ed65" d="M710.31,776.66c.03-1.06.14-2.1.14-3.16s-.11-2.1-.14-3.19l-.26-6.87h19.13v2.27l-16.51-.57-.34,7.51,15.85-.32v2.27l-15.85-.29.34,7.51,16.51-.63v2.3h-19.13l.26-6.82Z"/><path class="uuid-8ef25906-d981-4f13-af8c-fefff3c1ed65" d="M729.53,783.82h-19.83l.27-7.17c.01-.46.04-.93.07-1.38.04-.59.07-1.17.07-1.77s-.04-1.17-.07-1.76c-.03-.47-.06-.94-.07-1.42l-.27-7.23h19.83v2.98l-16.53-.57-.31,6.79,15.83-.32v2.98l-15.83-.29.31,6.79,16.53-.63v3.01ZM710.42,783.12h18.42v-1.59l-16.49.63-.38-8.22,15.86.29v-1.56l-15.86.32.38-8.22,16.49.57v-1.56h-18.42l.25,6.51c.01.48.04.94.07,1.4.04.6.07,1.2.07,1.8s-.04,1.21-.07,1.81c-.03.45-.06.9-.07,1.36h0s-.25,6.46-.25,6.46Z"/><path class="uuid-8ef25906-d981-4f13-af8c-fefff3c1ed65" d="M733.56,777.95l.23.26c1.64,2.13,4.92,3.16,7.62,3.16s7.19-.95,7.19-4.11c0-2.65-2.88-3.05-4.92-3.16-.92-.09-1.93-.11-2.93-.14-3.94-.2-8.2-.58-8.2-5.06s5.49-5.69,9.03-5.69c2.88,0,6.53,1.12,8.71,3.05l.09.09s.03.03.06.06l.09.12-1.12,2.42-.43-.52c-1.81-1.98-4.69-2.9-7.39-2.9s-7.19.8-7.19,3.91c0,1.27.89,1.9,2.36,2.19.75.17,1.61.26,2.56.32.92.06,1.93.09,2.93.14,3.94.23,8.2.89,8.2,5.55s-5.12,6.15-9.03,6.15c-3.02,0-6.56-.98-8.74-3.13l-.2-.23,1.09-2.45Z"/><path class="uuid-8ef25906-d981-4f13-af8c-fefff3c1ed65" d="M741.41,784.11c-2.76,0-6.57-.85-8.99-3.24l-.37-.42,1.4-3.14.59.66c1.63,2.11,4.87,3.05,7.36,3.05,2.37,0,6.84-.79,6.84-3.76,0-2.27-2.45-2.7-4.59-2.82-.92-.09-1.94-.12-2.92-.14-3.61-.19-8.53-.44-8.53-5.41,0-4.45,4.84-6.04,9.38-6.04,3.17,0,6.85,1.29,8.95,3.14l.4.48-1.44,3.1-.78-.94c-1.58-1.74-4.25-2.78-7.12-2.78-2.54,0-6.84.75-6.84,3.56,0,.67.24,1.48,2.08,1.84.66.15,1.43.25,2.51.31.49.03.99.05,1.51.08.47.02.94.04,1.42.07,2.98.17,8.52.5,8.52,5.9,0,6.04-7.18,6.5-9.38,6.5ZM732.87,780.33l.05.06c2.25,2.22,5.86,3.02,8.48,3.02,2.04,0,8.68-.42,8.68-5.81,0-4.38-4.06-4.98-7.87-5.2-.47-.03-.95-.05-1.41-.07-.52-.02-1.04-.04-1.53-.08-1.12-.07-1.93-.17-2.62-.32-1.77-.35-2.63-1.17-2.63-2.53,0-3.14,4.06-4.26,7.54-4.26,3.06,0,5.92,1.13,7.65,3.02l.09.11.79-1.69-.04-.03v-.06c-1.98-1.73-5.46-2.95-8.48-2.95-1.45,0-8.68.26-8.68,5.35,0,3.99,3.56,4.49,7.87,4.71.99.03,2.02.06,2.95.14,1.42.08,5.23.29,5.23,3.51,0,3.53-4.93,4.46-7.54,4.46s-5.96-.97-7.76-3.12l-.78,1.74Z"/><path class="uuid-8ef25906-d981-4f13-af8c-fefff3c1ed65" d="M755.27,780.37c.89,0,1.7.75,1.7,1.64s-.78,1.64-1.7,1.64-1.64-.78-1.64-1.64.78-1.64,1.64-1.64Z"/><path class="uuid-8ef25906-d981-4f13-af8c-fefff3c1ed65" d="M755.27,783.99c-1.08,0-1.99-.91-1.99-1.99s.93-1.99,1.99-1.99,2.05.91,2.05,1.99-.94,1.99-2.05,1.99ZM755.27,780.71c-.68,0-1.29.62-1.29,1.29s.6,1.29,1.29,1.29c.73,0,1.35-.59,1.35-1.29s-.63-1.29-1.35-1.29Z"/><path class="uuid-8ef25906-d981-4f13-af8c-fefff3c1ed65" d="M310.21,814.73c.03-1.06.14-2.1.14-3.16s-.11-2.1-.14-3.19l-.26-6.87h2.65l-.26,6.87c-.03,1.09-.14,2.13-.14,3.19s.12,2.1.14,3.16l.26,6.82h-2.65l.26-6.82Z"/><path class="uuid-8ef25906-d981-4f13-af8c-fefff3c1ed65" d="M312.96,821.89h-3.37l.27-7.18c.01-.47.04-.93.07-1.38.04-.59.07-1.17.07-1.77s-.04-1.17-.07-1.76c-.03-.47-.06-.94-.07-1.42l-.27-7.23h3.37l-.27,7.24c-.01.48-.04.95-.07,1.41-.04.59-.07,1.17-.07,1.77s.04,1.19.07,1.78c.03.46.06.91.07,1.38l.27,7.17ZM310.31,821.2h1.92l-.25-6.46c-.01-.46-.04-.91-.07-1.36-.04-.6-.08-1.21-.08-1.82s.04-1.21.08-1.81c.03-.46.06-.92.07-1.39l.25-6.52h-1.92l.25,6.51c.01.48.04.94.07,1.4.04.6.07,1.2.07,1.8s-.04,1.21-.07,1.81c-.03.45-.06.9-.07,1.36h0s-.25,6.46-.25,6.46Z"/><path class="uuid-8ef25906-d981-4f13-af8c-fefff3c1ed65" d="M319.21,814.73c.03-1.06.14-2.1.14-3.16s-.11-2.1-.14-3.19l-.26-6.87h2.39l5.78,6.59c3.05,3.54,6.3,6.9,9.58,10.21l.14-4.11c.03-.89.12-1.73.12-2.62,0-1.06-.12-2.1-.14-3.19l-.26-6.87h2.62l-.26,6.87c-.03,1.09-.11,2.13-.11,3.19s.09,2.13.11,3.16l.26,6.82h-2.36l-15.36-16.71-.14,4.14c-.03.86-.12,1.73-.12,2.59,0,1.06.12,2.1.14,3.16l.26,6.82h-2.65l.26-6.82Z"/><path class="uuid-8ef25906-d981-4f13-af8c-fefff3c1ed65" d="M339.53,821.89h-2.87l-.1-.11-14.78-16.09-.11,3.29c-.01.34-.03.69-.05,1.03-.03.52-.06,1.03-.06,1.55,0,.59.04,1.18.07,1.77.03.46.06.92.07,1.39l.27,7.17h-3.37l.27-7.18c.01-.46.04-.92.07-1.37.04-.59.07-1.18.07-1.78s-.04-1.18-.07-1.77c-.03-.46-.06-.93-.07-1.41l-.27-7.23h2.91l5.89,6.71c2.99,3.47,6.19,6.78,9,9.62l.11-3.31c.01-.36.03-.71.05-1.06.03-.51.06-1.02.06-1.55,0-.59-.04-1.18-.07-1.77-.03-.47-.06-.93-.07-1.42l-.27-7.23h3.34l-.27,7.24c-.01.44-.03.88-.05,1.32-.03.62-.06,1.24-.06,1.86s.03,1.28.06,1.91c.02.42.04.83.05,1.24l.27,7.17ZM336.96,821.2h1.85l-.25-6.46c-.01-.41-.03-.82-.05-1.23-.03-.64-.06-1.29-.06-1.94s.03-1.26.06-1.9c.02-.43.04-.86.05-1.31l.25-6.52h-1.9l.25,6.51c.01.48.04.94.07,1.39.04.6.08,1.2.08,1.81,0,.54-.03,1.06-.06,1.59-.02.34-.04.69-.05,1.04l-.17,4.92-.57-.57c-2.95-2.97-6.39-6.51-9.59-10.23l-5.68-6.47h-1.87l.25,6.51c.01.48.04.94.07,1.39.04.61.07,1.2.07,1.81s-.04,1.22-.08,1.82c-.03.45-.06.9-.07,1.35h0s-.25,6.46-.25,6.46h1.92l-.25-6.46c-.01-.46-.04-.92-.07-1.37-.04-.6-.08-1.2-.08-1.81,0-.53.03-1.06.06-1.59.02-.34.04-.68.05-1.01l.17-4.99,15.83,17.22Z"/><path class="uuid-8ef25906-d981-4f13-af8c-fefff3c1ed65" d="M345.3,816.02l.23.26c1.64,2.13,4.92,3.16,7.62,3.16s7.19-.95,7.19-4.11c0-2.65-2.88-3.05-4.92-3.16-.92-.09-1.93-.11-2.93-.14-3.94-.2-8.2-.58-8.2-5.06s5.49-5.69,9.03-5.69c2.88,0,6.53,1.12,8.71,3.05l.09.09s.03.03.06.06l.09.12-1.12,2.42-.43-.52c-1.81-1.98-4.69-2.9-7.39-2.9s-7.19.8-7.19,3.91c0,1.27.89,1.9,2.36,2.19.75.17,1.61.26,2.56.32.92.06,1.93.09,2.93.14,3.94.23,8.2.89,8.2,5.55s-5.12,6.15-9.03,6.15c-3.02,0-6.56-.98-8.74-3.13l-.2-.23,1.09-2.45Z"/><path class="uuid-8ef25906-d981-4f13-af8c-fefff3c1ed65" d="M353.15,822.18c-2.76,0-6.57-.85-8.99-3.24l-.36-.42,1.4-3.14.59.66c1.63,2.11,4.86,3.05,7.36,3.05,2.37,0,6.84-.79,6.84-3.76,0-2.27-2.45-2.7-4.59-2.82-.94-.09-1.99-.12-2.92-.14-3.61-.19-8.54-.44-8.54-5.41,0-4.46,4.84-6.04,9.38-6.04,3.17,0,6.85,1.29,8.94,3.14l.18.18.23.3-1.44,3.1-.78-.94c-1.58-1.74-4.25-2.78-7.12-2.78-2.54,0-6.84.75-6.84,3.56,0,.67.24,1.48,2.08,1.84.65.15,1.42.25,2.51.31.5.03,1.02.05,1.55.08.46.02.92.04,1.39.07,2.98.17,8.52.5,8.52,5.9,0,6.03-7.18,6.5-9.38,6.5ZM344.62,818.41l.05.06c2.25,2.22,5.86,3.02,8.48,3.02,2.04,0,8.68-.42,8.68-5.81,0-4.38-4.06-4.98-7.87-5.2-.46-.03-.92-.05-1.38-.07-.54-.02-1.06-.05-1.56-.08-1.13-.07-1.94-.17-2.62-.32-1.76-.35-2.63-1.17-2.63-2.53,0-3.14,4.06-4.26,7.54-4.26,3.06,0,5.92,1.13,7.65,3.02l.09.11.79-1.69-.04-.03-.02-.07c-1.96-1.72-5.45-2.94-8.46-2.94-1.45,0-8.68.26-8.68,5.35,0,3.99,3.56,4.49,7.87,4.71.93.03,2,.05,2.95.14,1.42.08,5.23.29,5.23,3.51,0,3.53-4.93,4.46-7.54,4.46s-5.96-.97-7.76-3.13l-.78,1.74Z"/><path class="uuid-8ef25906-d981-4f13-af8c-fefff3c1ed65" d="M367.36,821.08c0-1.04.11-2.1.17-3.19.11-2.07.23-4.2.23-6.33,0-3.22-.29-6.41-.4-9.64v-.43h12.63c3.25,0,6.5,1.84,6.5,5.41s-3.25,5.44-6.5,5.44c-3.45,0-6.87.03-10.35.03l.37,9.18h-2.65v-.46ZM379.99,810.7c2.33,0,3.97-1.52,3.97-3.8s-1.67-3.77-3.97-3.77c-3.34,0-6.7.03-10.01.03l-.34,7.54h10.35Z"/><path class="uuid-8ef25906-d981-4f13-af8c-fefff3c1ed65" d="M370.37,821.89h-3.36v-.81c0-.69.05-1.38.1-2.11.03-.36.05-.73.07-1.1.11-1.94.23-4.13.23-6.31,0-2-.11-4.03-.22-5.99-.07-1.21-.14-2.42-.18-3.64v-.79h12.97c3.4,0,6.85,1.98,6.85,5.76s-3.44,5.78-6.85,5.78c-1.72,0-3.44,0-5.15.01-1.61,0-3.22.01-4.84.01l.37,9.18ZM367.71,821.2h1.94l-.37-9.18h.36c1.74,0,3.47,0,5.2-.01,1.72,0,3.43-.01,5.16-.01,3.06,0,6.15-1.75,6.15-5.09s-3.09-5.06-6.15-5.06h-12.28v.08c.04,1.2.11,2.4.18,3.61.11,1.97.22,4.01.22,6.03,0,2.19-.12,4.4-.23,6.34-.02.37-.05.75-.07,1.11-.05.71-.1,1.39-.1,2.06v.11ZM379.99,811.05h-10.72l.38-8.23h.33c1.65,0,3.31,0,4.98-.01,1.68,0,3.36-.01,5.03-.01,2.54,0,4.32,1.69,4.32,4.12s-1.78,4.14-4.32,4.14ZM370,810.35h9.99c2.17,0,3.62-1.39,3.62-3.45s-1.49-3.42-3.62-3.42c-1.67,0-3.35,0-5.02.01-1.56,0-3.11.01-4.65.01l-.31,6.84Z"/><path class="uuid-8ef25906-d981-4f13-af8c-fefff3c1ed65" d="M391.55,814.73c.03-1.06.14-2.1.14-3.16s-.11-2.1-.14-3.19l-.26-6.87h2.65l-.26,6.87c-.03,1.09-.14,2.13-.14,3.19s.12,2.1.14,3.16l.26,6.82h-2.65l.26-6.82Z"/><path class="uuid-8ef25906-d981-4f13-af8c-fefff3c1ed65" d="M394.3,821.89h-3.37l.27-7.18c.01-.46.04-.92.07-1.37.04-.59.07-1.18.07-1.78s-.04-1.18-.07-1.77c-.03-.46-.06-.93-.07-1.41l-.27-7.23h3.37l-.27,7.24c-.01.48-.04.95-.07,1.41-.04.59-.07,1.17-.07,1.77s.04,1.19.07,1.78c.03.46.06.91.07,1.38l.27,7.17ZM391.65,821.2h1.92l-.25-6.46c-.01-.46-.04-.91-.07-1.36-.04-.6-.08-1.21-.08-1.82s.04-1.21.08-1.81c.03-.46.06-.92.07-1.39l.25-6.52h-1.92l.25,6.51c.01.48.04.94.07,1.39.04.61.07,1.2.07,1.81s-.04,1.22-.08,1.82c-.03.45-.06.9-.07,1.35h0s-.25,6.46-.25,6.46Z"/><path class="uuid-8ef25906-d981-4f13-af8c-fefff3c1ed65" d="M400.3,821.08c0-1.04.11-2.1.17-3.19.11-2.07.23-4.2.23-6.33,0-3.22-.32-6.41-.4-9.64v-.43h12.63c3.25,0,6.5,1.84,6.5,5.41s-3.19,5.44-6.5,5.44c-1.24,0-2.5,0-3.77.03l11.74,9.18h-4.29l-10.04-9.18h-4l.37,9.18h-2.65v-.46ZM412.92,810.7c2.3,0,3.97-1.52,3.97-3.8s-1.67-3.77-3.97-3.77c-3.34,0-6.7.03-10.01.03l-.34,7.54h10.35Z"/><path class="uuid-8ef25906-d981-4f13-af8c-fefff3c1ed65" d="M421.9,821.89h-5.43l-10.04-9.18h-3.5l.37,9.18h-3.36v-.81c0-.69.05-1.38.1-2.11.03-.36.05-.73.07-1.1.11-1.94.23-4.13.23-6.31,0-1.85-.11-3.73-.21-5.55-.08-1.33-.16-2.71-.19-4.08v-.79h12.97c3.4,0,6.85,1.98,6.85,5.76s-3.44,5.78-6.85,5.78h0c-.91,0-1.84,0-2.77.01l11.76,9.19ZM416.74,821.2h3.14l-11.71-9.15.97-.02c1.27-.03,2.54-.03,3.78-.03,3.06,0,6.15-1.75,6.15-5.09s-3.09-5.06-6.15-5.06h-12.28v.08c.04,1.34.11,2.72.19,4.05.11,1.83.21,3.72.21,5.59,0,2.19-.12,4.4-.23,6.34-.02.37-.05.75-.07,1.11-.05.71-.1,1.39-.1,2.06v.11h1.94l-.37-9.18h4.5l10.04,9.18ZM412.92,811.05h-10.72l.38-8.23h.33c1.65,0,3.31,0,4.98-.01,1.68,0,3.36-.01,5.03-.01,2.5,0,4.32,1.73,4.32,4.12s-1.78,4.14-4.32,4.14ZM402.93,810.35h9.99c2.13,0,3.62-1.42,3.62-3.45s-1.49-3.42-3.62-3.42c-1.67,0-3.35,0-5.02.01-1.56,0-3.11.01-4.65.01l-.31,6.84Z"/><path class="uuid-8ef25906-d981-4f13-af8c-fefff3c1ed65" d="M425.9,814.73c.03-1.06.14-2.1.14-3.16s-.11-2.1-.14-3.19l-.26-6.87h2.65l-.26,6.87c-.03,1.09-.14,2.13-.14,3.19s.12,2.1.14,3.16l.26,6.82h-2.65l.26-6.82Z"/><path class="uuid-8ef25906-d981-4f13-af8c-fefff3c1ed65" d="M428.64,821.89h-3.37l.27-7.18c.01-.46.04-.92.07-1.37.04-.59.07-1.18.07-1.78s-.04-1.18-.07-1.77c-.03-.46-.06-.93-.07-1.41l-.27-7.23h3.37l-.27,7.24c-.01.48-.04.95-.07,1.42-.04.59-.07,1.17-.07,1.76s.04,1.18.07,1.77c.03.46.06.92.07,1.39l.27,7.17ZM426,821.2h1.92l-.25-6.46c-.01-.46-.04-.92-.07-1.37-.04-.6-.08-1.2-.08-1.81s.04-1.2.07-1.8c.03-.46.06-.92.07-1.4l.25-6.52h-1.92l.25,6.51c.01.48.04.94.07,1.39.04.61.07,1.2.07,1.81s-.04,1.22-.08,1.82c-.03.45-.06.9-.07,1.35h0s-.25,6.46-.25,6.46Z"/><path class="uuid-8ef25906-d981-4f13-af8c-fefff3c1ed65" d="M434.9,814.73c.03-1.06.14-2.1.14-3.16s-.11-2.1-.14-3.19l-.26-6.87h2.39l5.78,6.59c3.05,3.54,6.3,6.9,9.58,10.21l.14-4.11c.03-.89.12-1.73.12-2.62,0-1.06-.12-2.1-.14-3.19l-.26-6.87h2.62l-.26,6.87c-.03,1.09-.11,2.13-.11,3.19s.09,2.13.11,3.16l.26,6.82h-2.36l-15.36-16.71-.14,4.14c-.03.86-.12,1.73-.12,2.59,0,1.06.12,2.1.14,3.16l.26,6.82h-2.65l.26-6.82Z"/><path class="uuid-8ef25906-d981-4f13-af8c-fefff3c1ed65" d="M455.22,821.89h-2.87l-.1-.11-14.78-16.09-.11,3.29c-.01.34-.03.69-.05,1.03-.03.52-.06,1.03-.06,1.55,0,.6.04,1.19.07,1.78.03.46.06.91.07,1.38l.27,7.17h-3.37l.27-7.18c.01-.47.04-.93.07-1.38.04-.59.07-1.17.07-1.77s-.04-1.17-.07-1.76c-.03-.47-.06-.94-.07-1.42l-.27-7.23h2.91l5.89,6.71c2.99,3.47,6.19,6.78,9,9.62l.11-3.31c.01-.36.03-.71.05-1.06.03-.51.06-1.02.06-1.55,0-.59-.04-1.18-.07-1.77-.03-.47-.06-.93-.07-1.42l-.27-7.23h3.34l-.27,7.24c-.01.44-.03.88-.05,1.32-.03.62-.06,1.24-.06,1.86s.03,1.28.06,1.91c.02.42.04.83.05,1.24l.27,7.17ZM452.65,821.2h1.84l-.25-6.46c-.01-.41-.03-.82-.05-1.23-.03-.64-.06-1.29-.06-1.94s.03-1.26.06-1.9c.02-.43.04-.86.05-1.31l.25-6.52h-1.9l.25,6.51c.01.48.04.94.07,1.39.04.6.08,1.2.08,1.81,0,.54-.03,1.06-.06,1.59-.02.34-.04.69-.05,1.04l-.17,4.92-.57-.57c-2.95-2.97-6.39-6.51-9.59-10.23l-5.68-6.47h-1.87l.25,6.51c.01.48.04.94.07,1.4.04.6.07,1.2.07,1.8s-.04,1.21-.07,1.81c-.03.45-.06.9-.07,1.36h0s-.25,6.46-.25,6.46h1.92l-.25-6.46c-.01-.46-.04-.91-.07-1.36-.04-.6-.08-1.21-.08-1.82,0-.53.03-1.06.06-1.59.02-.34.04-.68.05-1.01l.17-4.99,15.83,17.22Z"/><path class="uuid-8ef25906-d981-4f13-af8c-fefff3c1ed65" d="M465.53,810.76l16.11-.06v8.2h-.35c-2.93,2.04-6.5,2.96-10.07,2.96-6.07,0-11.16-4.14-11.16-10.3s5.06-10.3,11.16-10.3c3.48,0,7.13.78,9.86,3.05.03.03.06.06.09.09,0,.03.03.03.06.06l.11.12-1.29,2.24-.17-.2c-2.01-2.19-5.69-3.13-8.66-3.13-5.09,0-9.32,2.85-9.32,8.05s4.23,8.05,9.32,8.05c2.93,0,6.15-.75,8.48-2.5l.26-4.69-14.44.32v-1.96Z"/><path class="uuid-8ef25906-d981-4f13-af8c-fefff3c1ed65" d="M471.23,822.21c-6.56,0-11.51-4.58-11.51-10.64s4.95-10.65,11.51-10.65c2.89,0,6.98.54,10.09,3.13l.47.47-1.67,2.9-.49-.57c-2.05-2.22-5.8-3.01-8.39-3.01-4.47,0-8.97,2.38-8.97,7.7,0,4.68,3.52,7.71,8.97,7.71,3.14,0,6.1-.85,8.15-2.34l.23-4.15-14.42.32v-2.66l16.8-.06v8.89h-.58c-2.83,1.94-6.34,2.96-10.17,2.96ZM471.23,801.62c-6.16,0-10.81,4.28-10.81,9.95s4.65,9.95,10.81,9.95c3.73,0,7.14-1,9.87-2.9l.09-.06h.11v-7.5l-15.41.06v1.25l14.46-.32-.29,5.22-.13.1c-2.17,1.64-5.34,2.57-8.69,2.57-5.78,0-9.67-3.38-9.67-8.4s3.88-8.4,9.67-8.4c2.67,0,6.53.81,8.77,3.09l.91-1.58-.08-.05v-.06c-2.93-2.42-6.83-2.93-9.6-2.93Z"/><path class="uuid-8ef25906-d981-4f13-af8c-fefff3c1ed65" d="M495.33,821.08c0-1.04.11-2.1.17-3.19.11-2.07.23-4.2.23-6.33,0-3.22-.29-6.41-.4-9.64v-.43h12.63c3.25,0,6.5,1.84,6.5,5.41s-3.25,5.44-6.5,5.44c-3.45,0-6.87.03-10.35.03l.37,9.18h-2.65v-.46ZM507.96,810.7c2.33,0,3.97-1.52,3.97-3.8s-1.67-3.77-3.97-3.77c-3.34,0-6.7.03-10.01.03l-.34,7.54h10.35Z"/><path class="uuid-8ef25906-d981-4f13-af8c-fefff3c1ed65" d="M498.34,821.89h-3.36v-.81c0-.69.05-1.37.1-2.1.03-.37.05-.74.07-1.12.11-1.94.23-4.13.23-6.31,0-2-.11-4.03-.22-5.99-.07-1.21-.14-2.42-.18-3.63v-.79h12.97c3.4,0,6.85,1.98,6.85,5.76s-3.44,5.78-6.85,5.78c-1.72,0-3.44,0-5.15.01-1.61,0-3.22.01-4.84.01l.37,9.18ZM495.68,821.2h1.94l-.37-9.18h.36c1.74,0,3.47,0,5.2-.01,1.72,0,3.43-.01,5.16-.01,3.06,0,6.15-1.75,6.15-5.09s-3.09-5.06-6.15-5.06h-12.28v.08c.04,1.2.11,2.4.18,3.6.11,1.97.22,4.01.22,6.03,0,2.19-.12,4.4-.23,6.34-.02.38-.05.76-.07,1.13-.05.71-.1,1.38-.1,2.05v.11ZM507.96,811.05h-10.72l.38-8.23h.33c1.65,0,3.31,0,4.98-.01,1.68,0,3.36-.01,5.03-.01,2.54,0,4.32,1.69,4.32,4.12s-1.78,4.14-4.32,4.14ZM497.97,810.35h9.99c2.17,0,3.62-1.39,3.62-3.45s-1.49-3.42-3.62-3.42c-1.67,0-3.35,0-5.03.01-1.56,0-3.11.01-4.65.01l-.31,6.84Z"/><path class="uuid-8ef25906-d981-4f13-af8c-fefff3c1ed65" d="M514.06,821.26c1.58-3.34,3.25-6.64,4.89-9.98.49-1.01.83-2.1,1.29-3.16l2.73-6.62h2.39l2.73,6.62c.43,1.06.81,2.16,1.29,3.16,1.67,3.34,3.31,6.64,4.92,9.98l.14.29h-2.93l-2.13-5.49h-10.41l-2.16,5.49h-2.91l.14-.29ZM528.64,814.27c-.09-.23-.17-.43-.26-.66l-.49-1.32c-.09-.23-.17-.43-.26-.66-.35-.86-.86-1.73-1.27-2.56l-2.18-4.4-2.19,4.4c-.37.83-.92,1.7-1.27,2.56l-1.04,2.65h8.94Z"/><path class="uuid-8ef25906-d981-4f13-af8c-fefff3c1ed65" d="M535.01,821.89h-3.73l-2.13-5.49h-9.94l-2.16,5.49h-3.71l.4-.79c1.11-2.35,2.29-4.72,3.43-7.02.49-.99.98-1.97,1.46-2.96.28-.57.51-1.17.75-1.8.17-.45.35-.9.54-1.35l2.82-6.83h2.85l2.82,6.83c.14.34.27.68.4,1.02.27.71.56,1.45.89,2.12,1.45,2.91,3.18,6.38,4.92,9.98l.39.79ZM531.75,821.2h2.14c-1.71-3.53-3.39-6.91-4.81-9.77-.34-.71-.63-1.45-.91-2.18-.13-.34-.26-.67-.4-1.01l-2.64-6.4h-1.92l-2.64,6.4c-.19.44-.36.89-.53,1.33-.24.62-.48,1.25-.77,1.86-.49.99-.98,1.98-1.47,2.97-1.1,2.23-2.24,4.53-3.32,6.8h2.11l2.16-5.49h10.89l2.13,5.49ZM529.14,814.62h-9.95l1.22-3.12c.2-.5.46-1,.72-1.48.2-.37.39-.74.55-1.1l2.5-5.04,2.5,5.03c.15.3.31.61.47.91.29.55.58,1.11.81,1.67.05.12.09.23.13.34l1.05,2.79ZM520.2,813.92h7.93l-.69-1.83c-.04-.11-.09-.23-.14-.35-.21-.52-.5-1.07-.78-1.6-.16-.31-.33-.62-.48-.93l-1.87-3.77-1.87,3.77c-.16.36-.36.74-.57,1.13-.25.46-.5.94-.69,1.41l-.85,2.17Z"/><path class="uuid-8ef25906-d981-4f13-af8c-fefff3c1ed65" d="M538.77,821.08c0-1.04.11-2.1.17-3.19.11-2.07.23-4.2.23-6.33,0-3.22-.32-6.41-.4-9.64v-.43h12.63c3.25,0,6.5,1.84,6.5,5.41s-3.19,5.44-6.5,5.44c-1.24,0-2.5,0-3.77.03l11.74,9.18h-4.29l-10.04-9.18h-4l.37,9.18h-2.65v-.46ZM551.39,810.7c2.3,0,3.97-1.52,3.97-3.8s-1.67-3.77-3.97-3.77c-3.34,0-6.7.03-10.01.03l-.34,7.54h10.35Z"/><path class="uuid-8ef25906-d981-4f13-af8c-fefff3c1ed65" d="M560.37,821.89h-5.43l-10.04-9.18h-3.5l.37,9.18h-3.36v-.81c0-.69.05-1.38.1-2.11.03-.36.05-.73.07-1.1.11-1.94.23-4.13.23-6.31,0-1.85-.11-3.73-.21-5.55-.08-1.33-.16-2.71-.19-4.08v-.79h12.97c3.4,0,6.85,1.98,6.85,5.76s-3.44,5.78-6.85,5.78h0c-.91,0-1.84,0-2.77.01l11.76,9.19ZM555.21,821.2h3.14l-11.71-9.15.97-.02c1.27-.03,2.54-.03,3.78-.03,3.06,0,6.15-1.75,6.15-5.09s-3.09-5.06-6.15-5.06h-12.28v.08c.04,1.34.11,2.72.19,4.05.11,1.83.21,3.72.21,5.59,0,2.19-.12,4.4-.23,6.34-.02.37-.05.75-.07,1.11-.05.71-.1,1.39-.1,2.06v.11h1.94l-.37-9.18h4.49l10.04,9.18ZM551.39,811.05h-10.72l.38-8.23h.33c1.65,0,3.31,0,4.98-.01,1.68,0,3.36-.01,5.03-.01,2.5,0,4.32,1.73,4.32,4.12s-1.78,4.14-4.32,4.14ZM541.4,810.35h9.99c2.13,0,3.62-1.42,3.62-3.45s-1.49-3.42-3.62-3.42c-1.67,0-3.35,0-5.03.01-1.56,0-3.11.01-4.65.01l-.31,6.84Z"/><path class="uuid-8ef25906-d981-4f13-af8c-fefff3c1ed65" d="M569.97,814.73c.03-1.04.11-2.1.11-3.16,0-.98-.09-1.99-.11-2.96l-.2-5.49-8.28.72v-2.33h19.1v2.33l-8.25-.72-.23,5.49c-.03.98-.11,1.99-.11,2.96,0,1.06.09,2.13.11,3.16l.26,6.82h-2.62l.23-6.82Z"/><path class="uuid-8ef25906-d981-4f13-af8c-fefff3c1ed65" d="M572.72,821.89h-3.34l.24-7.17c.01-.41.03-.83.05-1.24.03-.63.06-1.27.06-1.91,0-.58-.03-1.18-.06-1.77-.02-.4-.04-.79-.05-1.19l-.19-5.13-8.3.72v-3.06h19.79v3.06l-8.27-.72-.22,5.13c-.01.39-.03.79-.05,1.2-.03.59-.06,1.17-.06,1.75,0,.63.03,1.27.06,1.89.02.42.04.84.05,1.26l.27,7.17ZM570.1,821.2h1.9l-.25-6.46c-.01-.41-.03-.83-.05-1.25-.03-.64-.06-1.28-.06-1.93,0-.59.03-1.19.06-1.79.02-.4.04-.79.05-1.19l.25-5.86,8.24.72v-1.6h-18.4v1.6l8.27-.72.21,5.86c.01.39.03.78.05,1.17.03.6.06,1.21.06,1.8,0,.65-.03,1.3-.06,1.94-.02.41-.04.82-.05,1.23h0s-.22,6.46-.22,6.46Z"/><path class="uuid-8ef25906-d981-4f13-af8c-fefff3c1ed65" d="M585.28,814.73c.03-1.06.14-2.1.14-3.16s-.11-2.1-.14-3.19l-.26-6.87h2.39l5.78,6.59c3.05,3.54,6.3,6.9,9.58,10.21l.14-4.11c.03-.89.12-1.73.12-2.62,0-1.06-.12-2.1-.14-3.19l-.26-6.87h2.62l-.26,6.87c-.03,1.09-.11,2.13-.11,3.19s.09,2.13.11,3.16l.26,6.82h-2.36l-15.36-16.71-.14,4.14c-.03.86-.12,1.73-.12,2.59,0,1.06.12,2.1.14,3.16l.26,6.82h-2.65l.26-6.82Z"/><path class="uuid-8ef25906-d981-4f13-af8c-fefff3c1ed65" d="M605.6,821.89h-2.87l-.1-.11-14.78-16.09-.11,3.29c-.01.35-.03.7-.05,1.05-.03.51-.06,1.02-.06,1.53,0,.6.04,1.19.07,1.78.03.46.06.91.07,1.38l.27,7.17h-3.37l.27-7.18c.01-.47.04-.93.07-1.38.04-.59.07-1.17.07-1.77s-.04-1.17-.07-1.76c-.03-.47-.06-.94-.07-1.42l-.27-7.23h2.91l5.89,6.71c2.99,3.47,6.19,6.78,9,9.62l.11-3.31c.01-.36.03-.71.05-1.06.03-.51.06-1.02.06-1.55,0-.59-.04-1.18-.07-1.77-.03-.47-.06-.93-.07-1.42l-.27-7.23h3.34l-.27,7.24c-.01.44-.03.88-.05,1.32-.03.62-.06,1.24-.06,1.86s.03,1.28.06,1.91c.02.42.04.83.05,1.24l.27,7.17ZM603.03,821.2h1.85l-.25-6.46c-.01-.41-.03-.82-.05-1.23-.03-.64-.06-1.29-.06-1.94s.03-1.26.06-1.9c.02-.43.04-.86.05-1.31l.25-6.52h-1.9l.25,6.51c.01.48.04.94.07,1.39.04.6.08,1.2.08,1.81,0,.54-.03,1.06-.06,1.59-.02.34-.04.69-.05,1.04l-.17,4.92-.57-.57c-2.95-2.97-6.39-6.51-9.59-10.23l-5.68-6.47h-1.87l.25,6.51c.01.48.04.94.07,1.4.04.6.07,1.2.07,1.8s-.04,1.21-.07,1.81c-.03.45-.06.9-.07,1.36h0s-.25,6.46-.25,6.46h1.92l-.25-6.46c-.01-.46-.04-.91-.07-1.36-.04-.6-.08-1.21-.08-1.82,0-.52.03-1.05.06-1.57.02-.34.04-.69.05-1.03l.17-4.99,15.83,17.22Z"/><path class="uuid-8ef25906-d981-4f13-af8c-fefff3c1ed65" d="M611.83,814.73c.03-1.06.14-2.1.14-3.16s-.11-2.1-.14-3.19l-.26-6.87h19.13v2.27l-16.51-.57-.34,7.51,15.85-.32v2.27l-15.85-.29.34,7.51,16.51-.63v2.3h-19.13l.26-6.82Z"/><path class="uuid-8ef25906-d981-4f13-af8c-fefff3c1ed65" d="M631.04,821.89h-19.84l.27-7.18c.01-.46.04-.92.07-1.37.04-.59.07-1.18.07-1.78s-.04-1.18-.07-1.77c-.03-.46-.06-.93-.07-1.41l-.27-7.23h19.84v2.98l-16.53-.57-.31,6.79,15.83-.32v2.98l-15.83-.29.31,6.79,16.53-.63v3.01ZM611.93,821.2h18.42v-1.59l-16.49.63-.38-8.22,15.86.29v-1.56l-15.86.32.38-8.22,16.49.57v-1.57h-18.42l.25,6.51c.01.48.04.94.07,1.39.04.61.07,1.2.07,1.81s-.04,1.22-.08,1.82c-.03.45-.06.9-.07,1.35h0s-.25,6.46-.25,6.46Z"/><path class="uuid-8ef25906-d981-4f13-af8c-fefff3c1ed65" d="M635.27,821.08c0-1.04.11-2.1.17-3.19.11-2.07.23-4.2.23-6.33,0-3.22-.32-6.41-.4-9.64v-.43h12.63c3.25,0,6.5,1.84,6.5,5.41s-3.19,5.44-6.5,5.44c-1.24,0-2.5,0-3.77.03l11.74,9.18h-4.29l-10.04-9.18h-4l.37,9.18h-2.65v-.46ZM647.89,810.7c2.3,0,3.97-1.52,3.97-3.8s-1.67-3.77-3.97-3.77c-3.34,0-6.7.03-10.01.03l-.34,7.54h10.35Z"/><path class="uuid-8ef25906-d981-4f13-af8c-fefff3c1ed65" d="M656.87,821.89h-5.43l-10.04-9.18h-3.5l.37,9.18h-3.36v-.81c0-.69.05-1.37.1-2.1.03-.37.05-.74.07-1.12.11-1.94.23-4.13.23-6.31,0-1.85-.11-3.73-.21-5.55-.08-1.33-.16-2.71-.19-4.07v-.79h12.97c3.4,0,6.85,1.98,6.85,5.76s-3.44,5.78-6.85,5.78h0c-.91,0-1.84,0-2.77.01l11.76,9.19ZM651.71,821.2h3.14l-11.71-9.15.97-.02c1.27-.03,2.54-.03,3.78-.03,3.06,0,6.15-1.75,6.15-5.09s-3.09-5.06-6.15-5.06h-12.28v.08c.04,1.34.11,2.72.19,4.04.1,1.83.21,3.72.21,5.59,0,2.19-.12,4.4-.23,6.34-.02.38-.05.76-.07,1.13-.05.71-.1,1.38-.1,2.05v.11h1.94l-.37-9.18h4.49l10.04,9.18ZM647.89,811.05h-10.72l.38-8.23h.33c1.65,0,3.31,0,4.98-.01,1.68,0,3.36-.01,5.03-.01,2.5,0,4.32,1.73,4.32,4.12s-1.78,4.14-4.32,4.14ZM637.91,810.35h9.99c2.13,0,3.62-1.42,3.62-3.45s-1.49-3.42-3.62-3.42c-1.67,0-3.35,0-5.03.01-1.56,0-3.11.01-4.65.01l-.31,6.84Z"/><path class="uuid-8ef25906-d981-4f13-af8c-fefff3c1ed65" d="M660.41,816.02l.23.26c1.64,2.13,4.92,3.16,7.62,3.16s7.19-.95,7.19-4.11c0-2.65-2.88-3.05-4.92-3.16-.92-.09-1.93-.11-2.93-.14-3.94-.2-8.2-.58-8.2-5.06s5.49-5.69,9.03-5.69c2.88,0,6.53,1.12,8.71,3.05l.09.09s.03.03.06.06l.09.12-1.12,2.42-.43-.52c-1.81-1.98-4.69-2.9-7.39-2.9s-7.19.8-7.19,3.91c0,1.27.89,1.9,2.36,2.19.75.17,1.61.26,2.56.32.92.06,1.93.09,2.93.14,3.94.23,8.2.89,8.2,5.55s-5.12,6.15-9.03,6.15c-3.02,0-6.56-.98-8.74-3.13l-.2-.23,1.09-2.45Z"/><path class="uuid-8ef25906-d981-4f13-af8c-fefff3c1ed65" d="M668.26,822.18c-2.76,0-6.57-.85-8.99-3.24l-.37-.41,1.4-3.14.59.66c1.63,2.11,4.86,3.05,7.36,3.05,2.37,0,6.84-.79,6.84-3.76,0-2.27-2.45-2.7-4.59-2.82-.94-.09-1.99-.12-2.92-.14-3.61-.19-8.53-.44-8.53-5.41,0-4.46,4.84-6.04,9.38-6.04,3.17,0,6.85,1.29,8.94,3.14l.18.18.23.3-1.44,3.1-.78-.94c-1.58-1.74-4.25-2.78-7.12-2.78-2.54,0-6.84.75-6.84,3.56,0,.67.24,1.48,2.08,1.84.65.15,1.42.25,2.51.31.5.03,1.02.05,1.55.08.46.02.92.04,1.39.07,2.98.17,8.52.5,8.52,5.9,0,6.03-7.18,6.5-9.38,6.5ZM659.72,818.4l.05.06c2.25,2.22,5.86,3.02,8.48,3.02,2.04,0,8.68-.42,8.68-5.81,0-4.38-4.06-4.98-7.87-5.2-.46-.03-.92-.05-1.38-.07-.54-.02-1.06-.05-1.56-.08-1.13-.07-1.94-.17-2.62-.32-1.76-.35-2.63-1.17-2.63-2.53,0-3.14,4.06-4.26,7.54-4.26,3.06,0,5.92,1.13,7.65,3.02l.09.11.79-1.69-.04-.03-.02-.07c-1.96-1.72-5.45-2.94-8.46-2.94-1.45,0-8.68.26-8.68,5.35,0,3.99,3.56,4.49,7.87,4.71.93.03,2,.05,2.95.14,1.42.08,5.23.29,5.23,3.51,0,3.53-4.93,4.46-7.54,4.46s-5.96-.97-7.76-3.13l-.78,1.74Z"/><path class="uuid-8ef25906-d981-4f13-af8c-fefff3c1ed65" d="M682.73,814.73c.03-1.06.14-2.1.14-3.16s-.11-2.1-.14-3.19l-.26-6.87h2.65l-.37,9.12h15.7l-.37-9.12h2.62l-.26,6.87c-.03,1.09-.11,2.13-.11,3.19s.09,2.13.11,3.16l.26,6.82h-2.62l.37-9.09h-15.7l.37,9.09h-2.65l.26-6.82Z"/><path class="uuid-8ef25906-d981-4f13-af8c-fefff3c1ed65" d="M703.05,821.89h-3.34l.37-9.09h-14.98l.37,9.09h-3.37l.27-7.18c.01-.46.04-.92.07-1.37.04-.59.07-1.18.07-1.78s-.04-1.18-.07-1.77c-.03-.46-.06-.93-.07-1.41l-.27-7.23h3.37l-.37,9.12h14.98l-.37-9.12h3.34l-.27,7.24c-.01.45-.03.9-.05,1.34-.03.62-.06,1.22-.06,1.84s.03,1.26.06,1.89c.02.43.04.85.05,1.26l.27,7.17ZM700.43,821.2h1.89l-.25-6.46c-.01-.42-.03-.83-.05-1.25-.03-.64-.06-1.28-.06-1.92s.03-1.25.06-1.88c.02-.44.04-.88.05-1.33l.25-6.52h-1.89l.37,9.12h-16.43l.37-9.12h-1.92l.25,6.51c.01.48.04.94.07,1.39.04.61.07,1.2.07,1.81s-.04,1.22-.08,1.82c-.03.45-.06.9-.07,1.35h0s-.25,6.46-.25,6.46h1.92l-.37-9.09h16.43l-.37,9.09Z"/><path class="uuid-8ef25906-d981-4f13-af8c-fefff3c1ed65" d="M709.28,814.73c.03-1.06.14-2.1.14-3.16s-.11-2.1-.14-3.19l-.26-6.87h2.65l-.26,6.87c-.03,1.09-.14,2.13-.14,3.19s.12,2.1.14,3.16l.26,6.82h-2.65l.26-6.82Z"/><path class="uuid-8ef25906-d981-4f13-af8c-fefff3c1ed65" d="M712.03,821.89h-3.37l.27-7.18c.01-.47.04-.93.07-1.38.04-.59.07-1.17.07-1.77s-.04-1.17-.07-1.76c-.03-.47-.06-.94-.07-1.42l-.27-7.23h3.37l-.27,7.24c-.01.48-.04.95-.07,1.41-.04.59-.07,1.17-.07,1.77s.04,1.19.07,1.78c.03.46.06.91.07,1.38l.27,7.17ZM709.38,821.2h1.92l-.25-6.46c-.01-.46-.04-.91-.07-1.36-.04-.6-.08-1.21-.08-1.82s.04-1.21.08-1.81c.03-.46.06-.92.07-1.39l.25-6.52h-1.92l.25,6.51c.01.48.04.94.07,1.4.04.6.07,1.2.07,1.8s-.04,1.21-.07,1.81c-.03.45-.06.9-.07,1.36h0s-.25,6.46-.25,6.46Z"/><path class="uuid-8ef25906-d981-4f13-af8c-fefff3c1ed65" d="M718.02,821.08c0-1.04.11-2.1.17-3.19.11-2.07.23-4.2.23-6.33,0-3.22-.29-6.41-.4-9.64v-.43h12.63c3.25,0,6.5,1.84,6.5,5.41s-3.25,5.44-6.5,5.44c-3.45,0-6.87.03-10.35.03l.37,9.18h-2.65v-.46ZM730.65,810.7c2.33,0,3.97-1.52,3.97-3.8s-1.67-3.77-3.97-3.77c-3.34,0-6.7.03-10.01.03l-.34,7.54h10.35Z"/><path class="uuid-8ef25906-d981-4f13-af8c-fefff3c1ed65" d="M721.03,821.89h-3.36v-.81c0-.69.05-1.37.1-2.1.03-.37.05-.74.07-1.12.11-1.94.23-4.13.23-6.31,0-2-.11-4.03-.22-5.99-.07-1.21-.14-2.42-.18-3.63v-.79h12.97c3.4,0,6.85,1.98,6.85,5.76s-3.45,5.78-6.85,5.78c-1.72,0-3.44,0-5.15.01-1.61,0-3.22.01-4.84.01l.37,9.18ZM718.37,821.2h1.94l-.37-9.18h.36c1.74,0,3.47,0,5.2-.01,1.72,0,3.44-.01,5.16-.01,3.06,0,6.15-1.75,6.15-5.09s-3.1-5.06-6.15-5.06h-12.28v.08c.04,1.2.11,2.4.18,3.6.11,1.97.22,4.01.22,6.03,0,2.19-.12,4.4-.23,6.34-.02.38-.05.76-.07,1.13-.05.71-.1,1.38-.1,2.05v.11ZM730.65,811.05h-10.72l.38-8.23h.33c1.65,0,3.31,0,4.98-.01,1.68,0,3.36-.01,5.03-.01,2.54,0,4.32,1.69,4.32,4.12s-1.78,4.14-4.32,4.14ZM720.66,810.35h9.99c2.17,0,3.62-1.39,3.62-3.45s-1.49-3.42-3.62-3.42c-1.67,0-3.35,0-5.02.01-1.56,0-3.11.01-4.65.01l-.31,6.84Z"/><path class="uuid-8ef25906-d981-4f13-af8c-fefff3c1ed65" d="M741.75,816.02l.23.26c1.64,2.13,4.92,3.16,7.62,3.16s7.19-.95,7.19-4.11c0-2.65-2.88-3.05-4.92-3.16-.92-.09-1.93-.11-2.93-.14-3.94-.2-8.2-.58-8.2-5.06s5.49-5.69,9.03-5.69c2.88,0,6.53,1.12,8.71,3.05l.09.09s.03.03.06.06l.09.12-1.12,2.42-.43-.52c-1.81-1.98-4.69-2.9-7.39-2.9s-7.19.8-7.19,3.91c0,1.27.89,1.9,2.36,2.19.75.17,1.61.26,2.56.32.92.06,1.93.09,2.93.14,3.94.23,8.2.89,8.2,5.55s-5.12,6.15-9.03,6.15c-3.02,0-6.56-.98-8.74-3.13l-.2-.23,1.09-2.45Z"/><path class="uuid-8ef25906-d981-4f13-af8c-fefff3c1ed65" d="M749.6,822.18c-2.76,0-6.57-.85-8.99-3.24l-.36-.42,1.4-3.14.59.66c1.63,2.11,4.86,3.05,7.36,3.05,2.37,0,6.84-.79,6.84-3.76,0-2.27-2.45-2.7-4.59-2.82-.94-.09-1.99-.12-2.92-.14-3.61-.19-8.54-.44-8.54-5.41,0-4.46,4.84-6.04,9.38-6.04,3.17,0,6.85,1.29,8.94,3.14l.18.18.23.3-1.44,3.1-.78-.94c-1.58-1.74-4.25-2.78-7.12-2.78-2.54,0-6.84.75-6.84,3.56,0,.67.24,1.48,2.08,1.84.65.15,1.42.25,2.51.31.5.03,1.02.05,1.55.08.46.02.92.04,1.39.07,2.98.17,8.52.5,8.52,5.9,0,6.03-7.18,6.5-9.38,6.5ZM741.07,818.41l.05.06c2.25,2.22,5.86,3.02,8.48,3.02,2.04,0,8.68-.42,8.68-5.81,0-4.38-4.06-4.98-7.87-5.2-.46-.03-.92-.05-1.38-.07-.54-.02-1.06-.05-1.56-.08-1.13-.07-1.94-.17-2.62-.32-1.76-.35-2.63-1.17-2.63-2.53,0-3.14,4.06-4.26,7.54-4.26,3.06,0,5.92,1.13,7.65,3.02l.09.11.79-1.69-.04-.03-.02-.07c-1.96-1.72-5.45-2.94-8.46-2.94-1.45,0-8.68.26-8.68,5.35,0,3.99,3.56,4.49,7.87,4.71.93.03,2,.05,2.95.14,1.42.08,5.23.29,5.23,3.51,0,3.53-4.93,4.46-7.54,4.46s-5.96-.97-7.76-3.13l-.78,1.74Z"/><path class="uuid-8ef25906-d981-4f13-af8c-fefff3c1ed65" d="M763.47,818.44c.89,0,1.7.75,1.7,1.64s-.78,1.64-1.7,1.64-1.64-.78-1.64-1.64.78-1.64,1.64-1.64Z"/><path class="uuid-8ef25906-d981-4f13-af8c-fefff3c1ed65" d="M763.47,822.06c-1.08,0-1.99-.91-1.99-1.99s.93-1.99,1.99-1.99,2.05.91,2.05,1.99-.94,1.99-2.05,1.99ZM763.47,818.79c-.68,0-1.29.62-1.29,1.29s.6,1.29,1.29,1.29c.73,0,1.35-.59,1.35-1.29s-.63-1.29-1.35-1.29Z"/><path class="uuid-8ef25906-d981-4f13-af8c-fefff3c1ed65" d="M255.18,312.45c.49-3.31,1.01-6.59,1.47-9.89.17-1.04.14-2.1.23-3.16l.55-6.76h2.65l2.91,6.67c.46,1.06.89,2.21,1.41,3.19,1.24,2.39,2.45,4.75,3.71,7.13l2.36-4.54c.46-.89.98-1.76,1.38-2.68,1.41-3.22,2.85-6.41,4.23-9.66l.03-.11h2.5v.2c.2,3.25.46,6.53.72,9.81.09,1.09.32,2.13.49,3.16l1.04,6.87h-2.65l-.49-6.79c-.09-1.01-.09-2.07-.23-3.13-.29-1.93-.57-3.82-.89-5.78-1.01,1.99-1.98,3.88-3.02,5.84-.52,1.04-.92,2.16-1.38,3.19l-2.93,6.67h-2.36l-2.88-6.62c-.46-1.04-.86-2.16-1.35-3.16-1.09-2.07-2.16-4.11-3.19-6.18-.32,1.98-.63,3.97-.92,5.95-.17,1.06-.14,2.13-.23,3.19l-.55,6.82h-2.62l.03-.23Z"/><path class="uuid-8ef25906-d981-4f13-af8c-fefff3c1ed65" d="M281.24,313.03h-3.37l-.51-7.11c-.03-.39-.05-.79-.08-1.2-.03-.63-.07-1.28-.15-1.92-.23-1.57-.47-3.13-.72-4.72-.91,1.78-1.72,3.36-2.54,4.89-.31.62-.59,1.3-.86,1.95-.17.41-.34.82-.51,1.22l-3.03,6.88h-2.81l-2.97-6.83c-.19-.42-.37-.87-.55-1.31-.25-.62-.51-1.26-.8-1.84-1.07-2.03-1.93-3.68-2.7-5.22-.26,1.63-.51,3.26-.75,4.88-.11.66-.14,1.34-.16,2-.02.39-.03.78-.06,1.17l-.57,7.14h-3.33l.08-.63c.17-1.15.34-2.3.52-3.45.33-2.15.65-4.29.95-6.45.11-.65.14-1.3.16-1.99.02-.38.03-.77.06-1.16l.57-7.08h3.2l3,6.88c.14.31.27.63.4.95.31.76.64,1.54,1,2.22l.84,1.62c.85,1.64,1.69,3.28,2.56,4.93l2.05-3.95c.15-.3.31-.59.47-.89.31-.57.63-1.17.9-1.77.48-1.1.97-2.2,1.46-3.31.93-2.11,1.86-4.22,2.77-6.36l.08-.33h3.12v.55c.2,3.23.46,6.56.72,9.78.06.77.2,1.54.33,2.27.05.29.1.57.15.86l1.1,7.28ZM278.51,312.34h1.92l-.98-6.47c-.05-.28-.1-.56-.15-.85-.14-.75-.28-1.53-.34-2.34-.25-3.18-.51-6.48-.71-9.69h-1.92c-.9,2.14-1.82,4.2-2.73,6.27-.49,1.1-.97,2.2-1.45,3.3-.27.63-.6,1.23-.92,1.82-.16.29-.32.58-.47.88l-2.67,5.13-.31-.59c-.98-1.85-1.93-3.68-2.88-5.52l-.83-1.61c-.37-.7-.7-1.5-1.02-2.27-.13-.32-.26-.63-.39-.94l-2.81-6.46h-2.1l-.52,6.44c-.03.38-.05.75-.06,1.13-.03.68-.06,1.38-.17,2.06-.3,2.15-.62,4.29-.95,6.44-.16,1.09-.33,2.18-.49,3.28h1.9l.52-6.5c.03-.38.05-.76.06-1.14.03-.68.06-1.38.17-2.08.29-1.98.6-3.97.92-5.95l.17-1.07.48.97c.9,1.81,1.89,3.71,3.19,6.18.3.62.57,1.27.82,1.89.18.44.36.87.54,1.29l2.79,6.41h1.9l2.84-6.46c.17-.39.34-.79.5-1.2.27-.67.56-1.36.88-2.01.96-1.8,1.91-3.66,3.02-5.84l.48-.95.17,1.05c.32,1.96.61,3.86.89,5.79.09.67.13,1.34.16,1.98.02.4.04.79.07,1.18l.46,6.47Z"/><path class="uuid-8ef25906-d981-4f13-af8c-fefff3c1ed65" d="M285.58,305.87c.03-1.06.14-2.1.14-3.16s-.11-2.1-.14-3.19l-.26-6.87h2.65l-.26,6.87c-.03,1.09-.14,2.13-.14,3.19s.12,2.1.14,3.16l.26,6.82h-2.65l.26-6.82Z"/><path class="uuid-8ef25906-d981-4f13-af8c-fefff3c1ed65" d="M288.33,313.03h-3.37l.27-7.18c.01-.46.04-.92.07-1.37.04-.59.07-1.18.07-1.78s-.04-1.18-.07-1.77c-.03-.46-.06-.93-.07-1.41l-.27-7.23h3.37l-.27,7.24c-.01.48-.04.95-.07,1.42-.04.59-.07,1.17-.07,1.76s.04,1.18.07,1.77c.03.46.06.92.07,1.39l.27,7.17ZM285.69,312.34h1.92l-.25-6.46c-.01-.46-.04-.92-.07-1.37-.04-.6-.08-1.2-.08-1.81s.04-1.2.07-1.8c.03-.46.06-.92.07-1.4l.25-6.52h-1.92l.25,6.51c.01.47.04.93.07,1.39.04.61.07,1.21.07,1.82s-.04,1.22-.08,1.82c-.03.45-.06.9-.07,1.35h0s-.25,6.46-.25,6.46Z"/><path class="uuid-8ef25906-d981-4f13-af8c-fefff3c1ed65" d="M292.46,312.4c1.58-3.34,3.25-6.64,4.89-9.98.49-1.01.83-2.1,1.29-3.16l2.73-6.62h2.39l2.73,6.62c.43,1.06.81,2.16,1.29,3.16,1.67,3.34,3.31,6.64,4.92,9.98l.14.29h-2.93l-2.13-5.49h-10.41l-2.16,5.49h-2.91l.14-.29ZM307.04,305.41c-.09-.23-.17-.43-.26-.66l-.49-1.32c-.09-.23-.17-.43-.26-.66-.35-.86-.86-1.73-1.27-2.56l-2.18-4.4-2.19,4.4c-.37.83-.92,1.7-1.27,2.56l-1.04,2.65h8.94Z"/><path class="uuid-8ef25906-d981-4f13-af8c-fefff3c1ed65" d="M313.41,313.03h-3.73l-2.13-5.49h-9.94l-2.16,5.49h-3.71l.4-.79c1.1-2.32,2.26-4.66,3.38-6.93.5-1.02,1.01-2.03,1.51-3.05.28-.57.51-1.17.75-1.8.17-.45.35-.9.54-1.34l2.82-6.83h2.85l2.82,6.83c.14.34.27.68.4,1.02.27.71.56,1.45.88,2.12,1.99,3.99,3.51,7.07,4.92,9.98l.39.79ZM310.15,312.34h2.14c-1.38-2.85-2.87-5.88-4.81-9.77-.34-.7-.63-1.45-.91-2.18-.13-.34-.26-.67-.4-1.01l-2.64-6.4h-1.92l-2.64,6.4c-.19.44-.36.88-.53,1.32-.24.62-.48,1.26-.77,1.86-.5,1.02-1.01,2.04-1.51,3.06-1.09,2.2-2.21,4.47-3.28,6.71h2.11l2.16-5.49h10.89l2.13,5.49ZM307.54,305.75h-9.95l1.22-3.12c.2-.5.47-1,.72-1.48.19-.37.39-.73.55-1.09l2.5-5.04,2.5,5.03c.15.31.31.61.47.92.29.54.58,1.1.81,1.67l.87,2.31c.04.11.09.23.14.35l.17.47ZM298.6,305.06h7.92l-.82-2.18c-.21-.52-.49-1.07-.77-1.59-.17-.32-.33-.63-.48-.94l-1.87-3.77-1.87,3.77c-.16.36-.36.74-.57,1.12-.25.47-.5.95-.69,1.41l-.85,2.17Z"/><path class="uuid-8ef25906-d981-4f13-af8c-fefff3c1ed65" d="M757.89,292.64l-.35,11.16v.35c0,4.03,2.5,7.36,6.79,7.36s6.9-3.57,6.76-7.71l-.35-11.16h2.62l-.37,11.27v.43c0,4.95-3.34,9-8.63,9s-8.74-3.97-8.74-9v-.43l-.37-11.27h2.65Z"/><path class="uuid-8ef25906-d981-4f13-af8c-fefff3c1ed65" d="M764.36,313.69c-5.35,0-9.09-3.85-9.09-9.35v-.43l-.39-11.62h3.36l-.36,11.85c0,4.13,2.65,7.02,6.44,7.02,1.81,0,3.37-.62,4.51-1.8,1.31-1.35,1.98-3.32,1.91-5.55l-.36-11.52h3.34l-.39,12.05c0,5.42-3.77,9.35-8.98,9.35ZM755.6,292.98l.36,11.36c0,5.1,3.45,8.66,8.4,8.66s8.28-3.64,8.28-8.66v-.43l.36-10.93h-1.9l.33,10.8c.08,2.41-.66,4.56-2.1,6.05-1.27,1.32-3,2.01-5.01,2.01-4.2,0-7.14-3.17-7.14-7.71v-.35l.33-10.81h-1.93Z"/><path class="uuid-8ef25906-d981-4f13-af8c-fefff3c1ed65" d="M779.2,307.16l.23.26c1.64,2.13,4.92,3.16,7.62,3.16s7.19-.95,7.19-4.11c0-2.65-2.88-3.05-4.92-3.16-.92-.09-1.93-.11-2.93-.14-3.94-.2-8.2-.58-8.2-5.06s5.49-5.69,9.03-5.69c2.88,0,6.53,1.12,8.71,3.05l.09.09s.03.03.06.06l.09.12-1.12,2.42-.43-.52c-1.81-1.98-4.69-2.9-7.39-2.9s-7.19.8-7.19,3.91c0,1.27.89,1.9,2.36,2.19.75.17,1.61.26,2.56.32.92.06,1.93.09,2.93.14,3.94.23,8.2.89,8.2,5.55s-5.12,6.15-9.03,6.15c-3.02,0-6.56-.98-8.74-3.13l-.2-.23,1.09-2.45Z"/><path class="uuid-8ef25906-d981-4f13-af8c-fefff3c1ed65" d="M787.05,313.32c-2.76,0-6.57-.85-8.99-3.24l-.37-.42,1.4-3.14.59.66c1.63,2.11,4.87,3.05,7.36,3.05,2.37,0,6.84-.79,6.84-3.77,0-2.27-2.45-2.7-4.59-2.82-.94-.09-1.99-.12-2.92-.14-3.61-.19-8.53-.44-8.53-5.41,0-4.45,4.84-6.04,9.38-6.04,3.17,0,6.85,1.29,8.94,3.14l.4.48-1.44,3.1-.78-.94c-1.58-1.74-4.25-2.78-7.12-2.78-2.54,0-6.84.75-6.84,3.56,0,.67.24,1.48,2.08,1.84.65.15,1.42.25,2.51.31.5.03,1.02.05,1.55.08.46.02.92.04,1.39.07,2.98.17,8.52.5,8.52,5.9,0,6.03-7.18,6.5-9.38,6.5ZM778.52,309.54l.05.06c2.25,2.22,5.86,3.02,8.48,3.02,2.04,0,8.68-.42,8.68-5.81,0-4.38-4.06-4.98-7.87-5.2-.46-.03-.92-.05-1.38-.07-.54-.02-1.06-.05-1.56-.08-1.13-.07-1.94-.17-2.62-.32-1.76-.35-2.63-1.17-2.63-2.53,0-3.14,4.06-4.26,7.54-4.26,3.06,0,5.92,1.13,7.65,3.02l.09.11.78-1.69-.04-.02v-.07s-.02,0-.02,0c-1.96-1.73-5.45-2.95-8.47-2.95-1.45,0-8.68.26-8.68,5.35,0,3.99,3.56,4.49,7.87,4.71.93.03,2,.05,2.95.14,1.42.08,5.23.29,5.23,3.51,0,3.53-4.93,4.46-7.54,4.46s-5.96-.97-7.76-3.12l-.78,1.74ZM795.9,295.54h.04l.04-.06-.07.06Z"/><path class="uuid-8ef25906-d981-4f13-af8c-fefff3c1ed65" d="M799.4,312.4c1.58-3.34,3.25-6.64,4.89-9.98.49-1.01.83-2.1,1.29-3.16l2.73-6.62h2.39l2.73,6.62c.43,1.06.81,2.16,1.29,3.16,1.67,3.34,3.31,6.64,4.92,9.98l.14.29h-2.93l-2.13-5.49h-10.41l-2.16,5.49h-2.91l.14-.29ZM813.98,305.41c-.09-.23-.17-.43-.26-.66l-.49-1.32c-.09-.23-.17-.43-.26-.66-.35-.86-.86-1.73-1.27-2.56l-2.18-4.4-2.19,4.4c-.37.83-.92,1.7-1.27,2.56l-1.04,2.65h8.94Z"/><path class="uuid-8ef25906-d981-4f13-af8c-fefff3c1ed65" d="M820.35,313.03h-3.73l-2.13-5.49h-9.94l-2.16,5.49h-3.71l.4-.79c1.11-2.34,2.28-4.7,3.41-6.99.49-1,.99-1.99,1.48-3,.28-.57.51-1.17.75-1.8.17-.45.35-.9.54-1.35l2.82-6.83h2.85l2.82,6.83c.14.34.27.68.4,1.02.27.71.56,1.45.88,2.12,1.36,2.71,3.14,6.31,4.92,9.98l.39.79ZM817.09,312.34h2.14c-1.74-3.6-3.48-7.1-4.81-9.77-.34-.7-.63-1.45-.91-2.18-.13-.34-.26-.67-.4-1.01l-2.64-6.4h-1.92l-2.64,6.4c-.19.44-.36.89-.53,1.33-.24.62-.48,1.25-.77,1.85-.49,1-.99,2-1.48,3-1.1,2.21-2.23,4.5-3.31,6.77h2.11l2.16-5.49h10.89l2.13,5.49ZM814.48,305.75h-9.95l1.22-3.12c.2-.5.47-1,.72-1.48.19-.37.39-.73.55-1.09l2.5-5.04,2.5,5.03c.15.31.31.61.47.92.29.54.58,1.1.81,1.67.05.13.09.24.14.36l.74,1.95c.04.11.09.23.14.35l.17.47ZM805.54,305.06h7.92l-.68-1.81c-.05-.12-.09-.24-.14-.36-.21-.52-.49-1.07-.77-1.59-.17-.32-.33-.63-.48-.94l-1.87-3.77-1.87,3.77c-.16.36-.36.74-.57,1.12-.25.47-.5.95-.69,1.41l-.85,2.17Z"/><path class="uuid-8ef25906-d981-4f13-af8c-fefff3c1ed65" d="M204.42,460.86v5.38h-43.7v29.63h29.26v5.38h-29.26v37.13h43.7v5.38h-57.64v-82.89h57.64Z"/><path class="uuid-8ef25906-d981-4f13-af8c-fefff3c1ed65" d="M205.4,544.73h-59.61v-84.86h59.61v7.34h-43.7v27.66h29.26v7.34h-29.26v35.17h43.7v7.34ZM147.76,542.77h55.67v-3.41h-43.7v-39.1h29.26v-3.41h-29.26v-31.6h43.7v-3.41h-55.67v80.93Z"/><path class="uuid-8ef25906-d981-4f13-af8c-fefff3c1ed65" d="M216.95,460.86h13.94v77.52h41.76v5.38h-55.7v-82.89Z"/><path class="uuid-8ef25906-d981-4f13-af8c-fefff3c1ed65" d="M273.64,544.73h-57.67v-84.86h15.91v77.52h41.76v7.34ZM217.94,542.77h53.73v-3.41h-41.76v-77.52h-11.97v80.93Z"/><path class="uuid-8ef25906-d981-4f13-af8c-fefff3c1ed65" d="M281.25,460.86h13.94v82.89h-13.94v-82.89Z"/><path class="uuid-8ef25906-d981-4f13-af8c-fefff3c1ed65" d="M296.18,544.73h-15.91v-84.86h15.91v84.86ZM282.24,542.77h11.97v-80.93h-11.97v80.93Z"/><path class="uuid-8ef25906-d981-4f13-af8c-fefff3c1ed65" d="M379.06,460.86v5.38h-30.01v77.52h-13.94v-77.52h-30.01v-5.38h73.95Z"/><path class="uuid-8ef25906-d981-4f13-af8c-fefff3c1ed65" d="M350.04,544.73h-15.91v-77.52h-30.01v-7.34h75.92v7.34h-30.01v77.52ZM336.1,542.77h11.97v-77.52h30.01v-3.41h-71.99v3.41h30.01v77.52Z"/><path class="uuid-8ef25906-d981-4f13-af8c-fefff3c1ed65" d="M446.49,460.86v5.38h-43.7v29.63h29.26v5.38h-29.26v37.13h43.7v5.38h-57.64v-82.89h57.64Z"/><path class="uuid-8ef25906-d981-4f13-af8c-fefff3c1ed65" d="M447.47,544.73h-59.61v-84.86h59.61v7.34h-43.7v27.66h29.26v7.34h-29.26v35.17h43.7v7.34ZM389.83,542.77h55.67v-3.41h-43.7v-39.1h29.26v-3.41h-29.26v-31.6h43.7v-3.41h-55.67v80.93Z"/><path class="uuid-8ef25906-d981-4f13-af8c-fefff3c1ed65" d="M508.57,540.44c2.04,0,4.06-.28,6.06-.84,2-.56,3.79-1.4,5.38-2.5,1.58-1.1,2.85-2.46,3.81-4.06.96-1.6,1.44-3.47,1.44-5.6,0-2.54-.66-4.8-1.97-6.78-1.31-1.98-3.03-3.79-5.16-5.44-2.13-1.65-4.55-3.2-7.28-4.66-2.73-1.46-5.51-2.92-8.35-4.38-2.83-1.46-5.62-2.99-8.35-4.6-2.73-1.6-5.16-3.4-7.28-5.38s-3.84-4.19-5.16-6.63c-1.31-2.44-1.97-5.24-1.97-8.41s.59-6.1,1.78-8.81c1.19-2.71,2.93-5.05,5.22-7.03,2.29-1.98,5.11-3.53,8.47-4.66,3.35-1.12,7.2-1.69,11.53-1.69,3.92,0,7.42.42,10.5,1.25,3.08.83,5.79,2.06,8.13,3.69,2.33,1.62,4.31,3.63,5.94,6,1.62,2.38,2.94,5.13,3.94,8.25l-7.13,3.25c-.83-2.54-1.9-4.87-3.19-6.97-1.29-2.1-2.83-3.91-4.63-5.41-1.79-1.5-3.87-2.66-6.22-3.47-2.35-.81-5.01-1.22-7.97-1.22-2.63,0-4.92.36-6.88,1.09-1.96.73-3.6,1.69-4.91,2.88-1.31,1.19-2.29,2.52-2.94,4-.65,1.48-.97,2.99-.97,4.53,0,2.17.67,4.16,2,5.97,1.33,1.81,3.1,3.52,5.31,5.13,2.21,1.61,4.72,3.16,7.53,4.66,2.81,1.5,5.68,3.02,8.6,4.56,2.92,1.54,5.78,3.15,8.6,4.81,2.81,1.67,5.32,3.49,7.53,5.47s3.98,4.15,5.31,6.5c1.33,2.35,2,4.99,2,7.91,0,3.29-.63,6.39-1.88,9.28-1.25,2.9-3.13,5.42-5.63,7.57-2.5,2.15-5.6,3.84-9.31,5.09-3.71,1.25-8.02,1.88-12.94,1.88-4,0-7.57-.44-10.69-1.31s-5.89-2.15-8.28-3.81c-2.4-1.67-4.45-3.7-6.16-6.1-1.71-2.4-3.11-5.14-4.19-8.22l7.44-3.06c.88,2.71,2.05,5.13,3.53,7.25s3.2,3.93,5.16,5.41c1.96,1.48,4.14,2.62,6.53,3.41,2.4.79,4.95,1.19,7.66,1.19Z"/><path class="uuid-8ef25906-d981-4f13-af8c-fefff3c1ed65" d="M507.57,546.67c-4.07,0-7.76-.45-10.96-1.35-3.22-.9-6.1-2.23-8.58-3.95-2.48-1.72-4.63-3.85-6.4-6.33-1.76-2.46-3.21-5.31-4.32-8.46l-.31-.88,9.28-3.82.33,1.01c.84,2.61,1.99,4.96,3.4,6.99,1.42,2.03,3.08,3.78,4.94,5.18,1.86,1.41,3.97,2.5,6.25,3.26,4,1.32,8.71,1.58,13.15.33,1.89-.53,3.6-1.32,5.08-2.36,1.46-1.02,2.65-2.28,3.53-3.76.86-1.44,1.3-3.16,1.3-5.09,0-2.33-.61-4.43-1.81-6.24-1.25-1.88-2.91-3.63-4.94-5.2-2.08-1.61-4.48-3.14-7.14-4.57-2.69-1.44-5.49-2.91-8.33-4.37-2.85-1.47-5.68-3.03-8.39-4.62-2.78-1.63-5.28-3.48-7.45-5.5-2.19-2.04-3.99-4.36-5.35-6.88-1.38-2.57-2.09-5.56-2.09-8.88s.63-6.39,1.86-9.21c1.24-2.83,3.09-5.31,5.48-7.38,2.38-2.06,5.34-3.69,8.8-4.84,3.44-1.15,7.43-1.74,11.85-1.74,3.98,0,7.6.43,10.76,1.28,3.18.86,6.02,2.15,8.43,3.83,2.42,1.69,4.5,3.79,6.19,6.25,1.67,2.45,3.04,5.31,4.06,8.51l.27.83-8.92,4.07-.34-1.04c-.81-2.46-1.85-4.73-3.09-6.76-1.23-2.01-2.72-3.74-4.42-5.17-1.69-1.42-3.68-2.52-5.91-3.29-2.24-.77-4.81-1.17-7.65-1.17-2.5,0-4.69.35-6.53,1.03-1.83.68-3.38,1.58-4.59,2.68-1.2,1.09-2.11,2.32-2.7,3.67-.59,1.35-.89,2.74-.89,4.14,0,1.97.59,3.73,1.81,5.39,1.27,1.72,2.98,3.38,5.1,4.91,2.16,1.57,4.65,3.11,7.42,4.58,2.81,1.5,5.68,3.02,8.59,4.56,2.93,1.55,5.84,3.18,8.64,4.84,2.85,1.69,5.44,3.57,7.69,5.58,2.28,2.04,4.13,4.31,5.51,6.75,1.41,2.49,2.13,5.32,2.13,8.39,0,3.41-.66,6.67-1.96,9.67-1.3,3.02-3.28,5.69-5.89,7.92-2.58,2.22-5.83,3.99-9.64,5.28-3.79,1.28-8.25,1.93-13.25,1.93ZM479.5,526.8c1,2.63,2.26,5.02,3.74,7.1,1.63,2.29,3.63,4.27,5.92,5.86,2.29,1.6,4.98,2.83,7.99,3.67,3.03.85,6.53,1.28,10.43,1.28,4.79,0,9.03-.61,12.63-1.82,3.57-1.2,6.6-2.86,8.99-4.91,2.37-2.04,4.18-4.46,5.36-7.21,1.19-2.76,1.8-5.75,1.8-8.89,0-2.73-.63-5.23-1.87-7.42-1.27-2.25-3-4.35-5.11-6.25-2.15-1.93-4.64-3.73-7.38-5.36-2.77-1.64-5.65-3.25-8.55-4.79-2.92-1.54-5.78-3.06-8.6-4.57-2.84-1.52-5.42-3.11-7.65-4.73-2.28-1.66-4.14-3.45-5.53-5.34-1.45-1.98-2.19-4.18-2.19-6.55,0-1.67.35-3.33,1.05-4.93.7-1.6,1.77-3.06,3.18-4.34,1.4-1.27,3.16-2.3,5.22-3.07,2.06-.77,4.49-1.16,7.22-1.16,3.05,0,5.84.43,8.29,1.27,2.46.85,4.65,2.07,6.53,3.64,1.86,1.56,3.49,3.46,4.83,5.65,1.15,1.87,2.13,3.93,2.93,6.14l5.34-2.44c-.93-2.68-2.12-5.09-3.54-7.17-1.55-2.27-3.46-4.2-5.69-5.75-2.23-1.55-4.86-2.75-7.82-3.55-2.99-.81-6.44-1.22-10.24-1.22-4.21,0-7.98.55-11.22,1.64-3.21,1.08-5.95,2.58-8.14,4.47-2.17,1.87-3.84,4.12-4.96,6.68-1.13,2.57-1.7,5.41-1.7,8.42s.62,5.66,1.85,7.94c1.26,2.33,2.93,4.48,4.96,6.37,2.07,1.92,4.46,3.69,7.11,5.25,2.69,1.58,5.48,3.12,8.3,4.57,2.85,1.47,5.66,2.94,8.36,4.38,2.76,1.48,5.26,3.07,7.42,4.75,2.2,1.7,4.01,3.61,5.38,5.67,1.42,2.14,2.13,4.6,2.13,7.33,0,2.29-.53,4.35-1.58,6.1-1.03,1.72-2.41,3.19-4.1,4.37-1.66,1.16-3.57,2.05-5.67,2.64-2.08.58-4.21.88-6.33.88-2.8,0-5.48-.42-7.97-1.24-2.49-.82-4.78-2.02-6.82-3.56-2.03-1.53-3.84-3.43-5.37-5.63-1.34-1.93-2.45-4.11-3.32-6.51l-5.6,2.31Z"/><path class="uuid-8ef25906-d981-4f13-af8c-fefff3c1ed65" d="M552.87,460.86h26.26c4.33,0,8.4.52,12.19,1.56,3.79,1.04,7.1,2.57,9.91,4.59,2.81,2.02,5.02,4.5,6.63,7.44,1.6,2.94,2.41,6.3,2.41,10.1s-.78,7.02-2.35,9.81c-1.56,2.79-3.63,5.11-6.19,6.94-2.56,1.83-5.47,3.2-8.72,4.1-3.25.9-6.56,1.34-9.94,1.34-1.46,0-2.98-.03-4.56-.09-1.58-.06-3.11-.16-4.56-.28-1.46-.12-2.81-.27-4.06-.44-1.25-.17-2.27-.33-3.06-.5v38.32h-13.94v-82.89ZM566.81,500.74c1.58.54,3.27.99,5.06,1.34,1.79.36,3.63.53,5.5.53,3,0,5.63-.45,7.88-1.34,2.25-.9,4.12-2.13,5.63-3.69,1.5-1.56,2.61-3.4,3.34-5.5.73-2.1,1.09-4.34,1.09-6.72,0-2.79-.48-5.31-1.44-7.57s-2.28-4.18-3.97-5.78c-1.69-1.6-3.67-2.84-5.94-3.72-2.27-.88-4.7-1.31-7.28-1.31h-9.88v33.76Z"/><path class="uuid-8ef25906-d981-4f13-af8c-fefff3c1ed65" d="M567.79,544.73h-15.91v-84.86h27.24c4.4,0,8.59.54,12.45,1.6,3.89,1.07,7.33,2.67,10.22,4.74,2.92,2.1,5.25,4.71,6.92,7.77,1.68,3.07,2.53,6.63,2.53,10.57s-.83,7.37-2.47,10.29c-1.63,2.91-3.8,5.35-6.47,7.26-2.64,1.89-5.68,3.32-9.03,4.24-3.32.92-6.75,1.38-10.2,1.38-1.46,0-3.01-.03-4.6-.09-1.61-.06-3.16-.16-4.61-.28-1.45-.12-2.84-.27-4.11-.44-.73-.1-1.38-.19-1.95-.29v38.12ZM553.85,542.77h11.97v-38.55l1.19.25c.76.16,1.76.32,2.99.49,1.24.17,2.59.31,4.02.43,1.42.12,2.94.22,4.52.28,1.56.06,3.09.09,4.52.09,3.27,0,6.53-.44,9.68-1.31,3.13-.86,5.95-2.19,8.41-3.95,2.43-1.74,4.42-3.97,5.9-6.62,1.47-2.63,2.22-5.77,2.22-9.33s-.77-6.85-2.29-9.63c-1.53-2.79-3.66-5.19-6.34-7.11-2.7-1.94-5.93-3.44-9.59-4.45-3.69-1.01-7.7-1.53-11.93-1.53h-25.27v80.93ZM577.37,503.6c-1.94,0-3.85-.18-5.69-.55-1.82-.36-3.57-.82-5.19-1.38l-.67-.23v-35.44h10.86c2.69,0,5.26.46,7.64,1.38,2.38.92,4.49,2.24,6.26,3.92,1.78,1.69,3.19,3.75,4.2,6.11,1.01,2.36,1.52,5.04,1.52,7.95,0,2.47-.39,4.84-1.15,7.04-.77,2.23-1.97,4.2-3.56,5.86-1.59,1.66-3.6,2.98-5.97,3.92-2.36.94-5.13,1.41-8.24,1.41ZM567.79,500.03c1.35.43,2.78.8,4.27,1.09,1.72.34,3.5.51,5.31.51,2.86,0,5.39-.43,7.51-1.27,2.11-.84,3.88-2,5.28-3.46,1.39-1.45,2.44-3.18,3.12-5.14.69-1.99,1.04-4.15,1.04-6.4,0-2.65-.46-5.06-1.36-7.18-.9-2.11-2.16-3.95-3.74-5.46-1.59-1.51-3.48-2.69-5.62-3.51-2.15-.83-4.48-1.25-6.93-1.25h-8.89v32.06Z"/><path class="uuid-8ef25906-d981-4f13-af8c-fefff3c1ed65" d="M665.05,545.69c-6.42,0-12.41-1.15-17.97-3.44-5.56-2.29-10.4-5.43-14.5-9.41-4.11-3.98-7.34-8.63-9.69-13.94-2.35-5.31-3.53-10.99-3.53-17.04,0-3.96.53-7.77,1.59-11.44s2.57-7.08,4.53-10.25c1.96-3.17,4.32-6.05,7.1-8.66,2.77-2.6,5.85-4.83,9.22-6.69,3.38-1.85,7.02-3.29,10.94-4.31,3.92-1.02,8.02-1.53,12.32-1.53s8.4.51,12.32,1.53c3.92,1.02,7.57,2.46,10.97,4.31,3.4,1.86,6.47,4.08,9.22,6.69s5.12,5.49,7.1,8.66,3.5,6.58,4.56,10.25,1.59,7.48,1.59,11.44-.53,7.87-1.59,11.6c-1.06,3.73-2.58,7.22-4.56,10.47-1.98,3.25-4.34,6.21-7.1,8.88-2.75,2.67-5.82,4.96-9.22,6.88-3.4,1.92-7.05,3.4-10.97,4.44-3.92,1.04-8.02,1.56-12.32,1.56ZM665.05,541.56c4.75,0,8.95-.99,12.6-2.97,3.65-1.98,6.72-4.74,9.22-8.28,2.5-3.54,4.39-7.73,5.66-12.56,1.27-4.83,1.91-10.13,1.91-15.88s-.64-10.94-1.91-15.69c-1.27-4.75-3.16-8.85-5.66-12.28-2.5-3.44-5.57-6.1-9.22-8-3.65-1.9-7.84-2.84-12.6-2.84s-9.08.95-12.72,2.84c-3.65,1.9-6.71,4.56-9.19,8-2.48,3.44-4.34,7.53-5.6,12.28-1.25,4.75-1.88,9.98-1.88,15.69s.63,11.04,1.88,15.88c1.25,4.83,3.11,9.02,5.6,12.56,2.48,3.54,5.54,6.31,9.19,8.28,3.65,1.98,7.89,2.97,12.72,2.97Z"/><path class="uuid-8ef25906-d981-4f13-af8c-fefff3c1ed65" d="M665.05,546.67c-6.52,0-12.69-1.18-18.35-3.51-5.65-2.33-10.64-5.56-14.81-9.61-4.18-4.05-7.51-8.84-9.9-14.25-2.4-5.42-3.62-11.28-3.62-17.43,0-4.03.55-7.97,1.63-11.71,1.08-3.74,2.65-7.27,4.64-10.5,1.99-3.23,4.44-6.21,7.26-8.86,2.82-2.65,5.99-4.95,9.42-6.83,3.43-1.88,7.19-3.37,11.17-4.4,3.98-1.04,8.21-1.56,12.56-1.56s8.58.53,12.56,1.56c3.98,1.04,7.74,2.52,11.19,4.4,3.46,1.89,6.63,4.19,9.43,6.84,2.8,2.65,5.24,5.63,7.25,8.85,2.02,3.23,3.59,6.76,4.67,10.5,1.08,3.74,1.63,7.68,1.63,11.71s-.55,8.06-1.63,11.87c-1.08,3.8-2.65,7.4-4.67,10.71-2.02,3.31-4.46,6.36-7.25,9.07-2.8,2.71-5.97,5.08-9.42,7.03-3.46,1.95-7.22,3.48-11.2,4.53-3.98,1.06-8.21,1.6-12.57,1.6ZM665.05,459.96c-4.19,0-8.25.5-12.07,1.5-3.82,1-7.43,2.42-10.71,4.22-3.29,1.81-6.32,4.01-9.02,6.54-2.7,2.53-5.03,5.38-6.93,8.46-1.9,3.07-3.39,6.44-4.42,10.01-1.03,3.56-1.56,7.32-1.56,11.17,0,5.88,1.16,11.47,3.45,16.64,2.29,5.17,5.48,9.76,9.48,13.63,4,3.87,8.77,6.97,14.19,9.21,5.42,2.23,11.34,3.36,17.6,3.36,4.19,0,8.24-.51,12.06-1.53,3.82-1.01,7.43-2.48,10.74-4.35,3.31-1.87,6.34-4.13,9.02-6.73,2.68-2.59,5.01-5.51,6.94-8.68,1.92-3.16,3.42-6.6,4.46-10.23,1.03-3.63,1.56-7.44,1.56-11.33s-.52-7.6-1.56-11.17c-1.03-3.56-2.53-6.93-4.45-10-1.93-3.08-4.26-5.93-6.94-8.47-2.67-2.53-5.71-4.73-9.02-6.54-3.31-1.81-6.93-3.23-10.75-4.23-3.82-.99-7.88-1.5-12.07-1.5ZM665.05,542.55c-4.98,0-9.42-1.04-13.19-3.09-3.76-2.04-6.97-4.93-9.53-8.58-2.54-3.62-4.47-7.96-5.74-12.88-1.27-4.89-1.91-10.32-1.91-16.12s.64-11.13,1.91-15.94c1.28-4.85,3.21-9.09,5.75-12.61,2.56-3.55,5.77-6.34,9.53-8.3,3.77-1.96,8.2-2.96,13.18-2.96s9.28.99,13.05,2.96c3.77,1.96,6.98,4.75,9.56,8.3,2.56,3.52,4.51,7.76,5.81,12.61,1.29,4.81,1.94,10.18,1.94,15.95s-.65,11.23-1.94,16.13c-1.3,4.93-3.25,9.26-5.81,12.88-2.58,3.65-5.79,6.54-9.56,8.58-3.77,2.05-8.17,3.09-13.07,3.09ZM665.05,464.03c-4.65,0-8.78.92-12.27,2.73-3.49,1.82-6.47,4.41-8.85,7.7-2.4,3.32-4.23,7.35-5.44,11.96-1.22,4.65-1.84,9.84-1.84,15.44s.62,10.9,1.84,15.63c1.22,4.7,3.05,8.82,5.45,12.25,2.38,3.4,5.36,6.09,8.85,7.98,3.48,1.89,7.6,2.85,12.25,2.85s8.64-.96,12.13-2.85c3.5-1.9,6.49-4.58,8.89-7.99,2.42-3.43,4.27-7.55,5.51-12.25,1.24-4.73,1.87-9.99,1.87-15.63s-.63-10.79-1.87-15.44c-1.23-4.61-3.09-8.64-5.5-11.96-2.4-3.3-5.39-5.89-8.88-7.71-3.49-1.81-7.57-2.73-12.14-2.73Z"/><path class="uuid-8ef25906-d981-4f13-af8c-fefff3c1ed65" d="M725.73,460.86h28.76c4.96,0,9.31.53,13.07,1.59,3.75,1.06,6.88,2.55,9.38,4.47,2.5,1.92,4.39,4.2,5.66,6.85,1.27,2.65,1.91,5.53,1.91,8.66,0,2.59-.49,5-1.47,7.25s-2.35,4.28-4.13,6.1c-1.77,1.81-3.91,3.38-6.41,4.69s-5.25,2.34-8.25,3.09l30.19,40.2h-16.19l-28.82-38.95h-9.75v38.95h-13.94v-82.89ZM739.67,500.62h8.06c3.13,0,6.01-.42,8.66-1.25,2.65-.83,4.94-2.01,6.88-3.53,1.94-1.52,3.45-3.36,4.53-5.53s1.63-4.6,1.63-7.31c0-2.5-.43-4.79-1.28-6.88-.85-2.08-2.06-3.87-3.63-5.35-1.56-1.48-3.42-2.63-5.56-3.47-2.15-.83-4.49-1.25-7.03-1.25h-12.25v34.57Z"/><path class="uuid-8ef25906-d981-4f13-af8c-fefff3c1ed65" d="M796.4,544.73h-18.66l-28.82-38.95h-8.27v38.95h-15.91v-84.86h29.74c5.03,0,9.52.55,13.33,1.63,3.85,1.09,7.12,2.65,9.71,4.63,2.61,2,4.61,4.42,5.95,7.2,1.33,2.77,2,5.83,2,9.08,0,2.71-.52,5.28-1.55,7.64-1.02,2.35-2.48,4.5-4.32,6.39-1.84,1.88-4.08,3.52-6.65,4.87-2.16,1.13-4.52,2.07-7.05,2.8l30.5,40.61ZM778.74,542.77h13.73l-29.9-39.81,1.44-.36c2.91-.73,5.61-1.74,8.03-3.01,2.39-1.26,4.47-2.77,6.16-4.5,1.68-1.72,3-3.67,3.93-5.8.92-2.12,1.39-4.42,1.39-6.86,0-2.96-.61-5.73-1.81-8.23-1.2-2.49-3-4.68-5.37-6.49-2.39-1.83-5.44-3.28-9.05-4.3-3.64-1.03-7.95-1.56-12.8-1.56h-27.77v80.93h11.97v-38.95h11.23l28.82,38.95ZM747.73,501.6h-9.05v-36.54h13.24c2.65,0,5.14.44,7.39,1.32,2.26.88,4.24,2.11,5.88,3.67,1.66,1.57,2.96,3.48,3.86,5.69.9,2.2,1.35,4.64,1.35,7.25,0,2.85-.58,5.46-1.73,7.75s-2.76,4.26-4.81,5.87c-2.02,1.59-4.44,2.83-7.19,3.7-2.73.86-5.74,1.3-8.95,1.3ZM740.65,499.63h7.08c3.01,0,5.83-.41,8.36-1.2,2.52-.79,4.73-1.93,6.57-3.37,1.81-1.42,3.25-3.17,4.26-5.2s1.52-4.33,1.52-6.87c0-2.36-.41-4.55-1.21-6.5-.8-1.94-1.94-3.63-3.39-5-1.46-1.38-3.23-2.48-5.24-3.27-2.02-.79-4.27-1.18-6.68-1.18h-11.27v32.6Z"/><path class="uuid-8ef25906-d981-4f13-af8c-fefff3c1ed65" d="M861.79,460.86v5.38h-30.01v77.52h-13.94v-77.52h-30.01v-5.38h73.95Z"/><path class="uuid-8ef25906-d981-4f13-af8c-fefff3c1ed65" d="M832.77,544.73h-15.91v-77.52h-30.01v-7.34h75.92v7.34h-30.01v77.52ZM818.83,542.77h11.97v-77.52h30.01v-3.41h-71.99v3.41h30.01v77.52Z"/><path class="uuid-8ef25906-d981-4f13-af8c-fefff3c1ed65" d="M898.71,540.44c2.04,0,4.06-.28,6.06-.84,2-.56,3.79-1.4,5.38-2.5,1.58-1.1,2.85-2.46,3.81-4.06.96-1.6,1.44-3.47,1.44-5.6,0-2.54-.66-4.8-1.97-6.78-1.31-1.98-3.03-3.79-5.16-5.44-2.13-1.65-4.55-3.2-7.28-4.66-2.73-1.46-5.51-2.92-8.35-4.38-2.83-1.46-5.62-2.99-8.35-4.6-2.73-1.6-5.16-3.4-7.28-5.38s-3.84-4.19-5.16-6.63c-1.31-2.44-1.97-5.24-1.97-8.41s.59-6.1,1.78-8.81c1.19-2.71,2.93-5.05,5.22-7.03,2.29-1.98,5.11-3.53,8.47-4.66,3.35-1.12,7.2-1.69,11.53-1.69,3.92,0,7.42.42,10.5,1.25,3.08.83,5.79,2.06,8.13,3.69,2.33,1.62,4.31,3.63,5.94,6,1.62,2.38,2.94,5.13,3.94,8.25l-7.13,3.25c-.83-2.54-1.9-4.87-3.19-6.97-1.29-2.1-2.83-3.91-4.63-5.41-1.79-1.5-3.87-2.66-6.22-3.47-2.35-.81-5.01-1.22-7.97-1.22-2.63,0-4.92.36-6.88,1.09-1.96.73-3.6,1.69-4.91,2.88-1.31,1.19-2.29,2.52-2.94,4-.65,1.48-.97,2.99-.97,4.53,0,2.17.67,4.16,2,5.97,1.33,1.81,3.1,3.52,5.31,5.13,2.21,1.61,4.72,3.16,7.53,4.66,2.81,1.5,5.68,3.02,8.6,4.56,2.92,1.54,5.78,3.15,8.6,4.81,2.81,1.67,5.32,3.49,7.53,5.47s3.98,4.15,5.31,6.5c1.33,2.35,2,4.99,2,7.91,0,3.29-.63,6.39-1.88,9.28-1.25,2.9-3.13,5.42-5.63,7.57s-5.6,3.84-9.31,5.09c-3.71,1.25-8.02,1.88-12.94,1.88-4,0-7.57-.44-10.69-1.31s-5.89-2.15-8.28-3.81c-2.4-1.67-4.45-3.7-6.16-6.1-1.71-2.4-3.11-5.14-4.19-8.22l7.44-3.06c.88,2.71,2.05,5.13,3.53,7.25s3.2,3.93,5.16,5.41c1.96,1.48,4.14,2.62,6.53,3.41,2.4.79,4.95,1.19,7.66,1.19Z"/><path class="uuid-8ef25906-d981-4f13-af8c-fefff3c1ed65" d="M897.71,546.67c-4.07,0-7.76-.45-10.96-1.35-3.22-.9-6.11-2.23-8.58-3.95-2.48-1.72-4.63-3.85-6.4-6.33-1.76-2.46-3.21-5.31-4.32-8.46l-.31-.88,9.28-3.82.33,1.01c.84,2.61,1.99,4.96,3.4,6.99,1.42,2.03,3.08,3.78,4.94,5.18,1.86,1.41,3.97,2.5,6.25,3.26,4,1.32,8.71,1.58,13.15.33,1.89-.53,3.6-1.32,5.08-2.36,1.46-1.02,2.65-2.28,3.53-3.76.86-1.44,1.3-3.16,1.3-5.09,0-2.33-.61-4.43-1.81-6.24-1.25-1.88-2.91-3.63-4.94-5.2-2.07-1.61-4.48-3.14-7.14-4.57-2.69-1.44-5.5-2.91-8.33-4.37-2.86-1.47-5.68-3.03-8.39-4.62-2.78-1.63-5.28-3.48-7.45-5.5-2.19-2.04-3.99-4.36-5.35-6.88-1.38-2.57-2.09-5.56-2.09-8.88s.63-6.39,1.86-9.21c1.24-2.83,3.09-5.32,5.48-7.38,2.38-2.06,5.34-3.69,8.8-4.84,3.44-1.15,7.43-1.74,11.85-1.74,3.98,0,7.6.43,10.76,1.28,3.18.86,6.02,2.15,8.43,3.83,2.42,1.69,4.5,3.79,6.19,6.25,1.67,2.45,3.04,5.31,4.06,8.51l.27.83-8.92,4.07-.34-1.04c-.81-2.46-1.85-4.73-3.09-6.76-1.23-2-2.72-3.74-4.42-5.17-1.69-1.42-3.68-2.52-5.91-3.29-2.24-.77-4.81-1.17-7.65-1.17-2.5,0-4.69.35-6.53,1.03-1.83.68-3.38,1.58-4.59,2.68-1.2,1.09-2.11,2.32-2.7,3.67-.59,1.35-.89,2.74-.89,4.14,0,1.97.59,3.73,1.81,5.39,1.27,1.72,2.98,3.38,5.1,4.91,2.16,1.57,4.65,3.11,7.42,4.58,2.81,1.5,5.68,3.02,8.59,4.56,2.93,1.55,5.84,3.18,8.64,4.84,2.85,1.69,5.44,3.57,7.69,5.58,2.28,2.04,4.13,4.31,5.51,6.75,1.41,2.49,2.13,5.32,2.13,8.39,0,3.41-.66,6.67-1.96,9.67-1.3,3.02-3.28,5.69-5.89,7.92-2.58,2.22-5.83,3.99-9.64,5.28-3.79,1.28-8.25,1.93-13.25,1.93ZM869.64,526.8c1,2.63,2.26,5.02,3.74,7.1,1.64,2.29,3.63,4.27,5.92,5.86,2.29,1.6,4.98,2.83,7.99,3.67,3.03.85,6.53,1.28,10.43,1.28,4.79,0,9.03-.61,12.63-1.82,3.57-1.2,6.6-2.86,8.99-4.91,2.37-2.04,4.18-4.46,5.36-7.21,1.19-2.76,1.8-5.75,1.8-8.89,0-2.73-.63-5.23-1.87-7.42-1.27-2.25-3-4.35-5.11-6.25-2.15-1.93-4.64-3.73-7.38-5.36-2.77-1.64-5.65-3.25-8.55-4.79-2.92-1.54-5.79-3.06-8.6-4.57-2.84-1.52-5.42-3.11-7.65-4.73-2.28-1.66-4.14-3.45-5.53-5.34-1.45-1.98-2.19-4.18-2.19-6.55,0-1.67.35-3.33,1.05-4.93.7-1.6,1.77-3.06,3.18-4.34,1.4-1.27,3.16-2.3,5.22-3.07,2.06-.77,4.49-1.16,7.22-1.16,3.05,0,5.84.43,8.29,1.27,2.46.85,4.65,2.07,6.53,3.64,1.86,1.56,3.49,3.46,4.83,5.65,1.15,1.87,2.13,3.93,2.93,6.14l5.34-2.44c-.93-2.68-2.12-5.09-3.54-7.17-1.55-2.27-3.46-4.2-5.69-5.75-2.23-1.55-4.86-2.75-7.82-3.55-2.99-.81-6.44-1.22-10.25-1.22-4.21,0-7.98.55-11.22,1.64-3.21,1.08-5.95,2.58-8.14,4.47-2.17,1.87-3.84,4.12-4.96,6.68-1.13,2.57-1.7,5.41-1.7,8.42s.62,5.66,1.85,7.94c1.26,2.33,2.93,4.48,4.96,6.37,2.07,1.92,4.46,3.69,7.11,5.25,2.68,1.58,5.47,3.12,8.3,4.57,2.84,1.46,5.66,2.94,8.36,4.38,2.76,1.48,5.26,3.07,7.42,4.75,2.2,1.7,4.01,3.61,5.38,5.67,1.42,2.14,2.13,4.6,2.13,7.33,0,2.29-.53,4.35-1.58,6.1-1.03,1.72-2.41,3.19-4.1,4.37-1.67,1.16-3.57,2.05-5.67,2.64-2.08.58-4.21.88-6.33.88-2.8,0-5.48-.42-7.97-1.24-2.49-.82-4.78-2.02-6.82-3.56-2.03-1.53-3.84-3.43-5.37-5.63-1.34-1.93-2.45-4.11-3.32-6.51l-5.6,2.31Z"/><path class="uuid-8ef25906-d981-4f13-af8c-fefff3c1ed65" d="M111.52,589.38h14.25l32.26,63.58h.69l31.63-63.58h14v82.89h-14v-67.95h-.44l-34.01,67.95h-2.88l-34.38-67.39h-.94v67.39h-6.19v-82.89Z"/><path class="uuid-8ef25906-d981-4f13-af8c-fefff3c1ed65" d="M205.34,673.25h-15.97v-65.65l-32.85,65.65h-4.09l-33.73-66.12v66.12h-8.16v-84.86h15.84l31.99,63.05,31.37-63.05h15.6v84.86ZM191.34,671.29h12.04v-80.93h-12.41l-31.63,63.58h-1.9l-32.26-63.58h-12.67v80.93h4.22v-67.39h2.52l34.38,67.39h1.67l34.01-67.95h2.03v67.95Z"/><path class="uuid-8ef25906-d981-4f13-af8c-fefff3c1ed65" d="M255.47,587.5l39.01,84.77h-14.19l-12.63-27.63h-35.57l-13.07,27.63h-7l39.95-84.77h3.5ZM234.53,639.26h30.57l-15.07-32.82-15.5,32.82Z"/><path class="uuid-8ef25906-d981-4f13-af8c-fefff3c1ed65" d="M296.01,673.25h-16.36l-12.63-27.63h-34.31l-13.07,27.63h-9.18l40.87-86.74h4.76l39.91,86.74ZM280.92,671.29h12.02l-38.1-82.8h-2.25l-39.02,82.8h4.83l13.07-27.63h36.82l12.63,27.63ZM266.63,640.25h-33.66l17.07-36.13,16.59,36.13ZM236.08,638.28h27.48l-13.54-29.51-13.94,29.51Z"/><path class="uuid-8ef25906-d981-4f13-af8c-fefff3c1ed65" d="M302.14,589.38h7.81l54.33,60.64h.63v-60.64h6.13v84.83h-3.25l-58.83-67.39h-.5v65.45h-6.31v-82.89Z"/><path class="uuid-8ef25906-d981-4f13-af8c-fefff3c1ed65" d="M372.01,675.19h-4.68l-57.9-66.32v64.39h-8.28v-84.86h9.24l.29.33,53.23,59.42v-59.75h8.09v86.8ZM368.23,673.22h1.82v-82.86h-4.16v60.64h-2.05l-.29-.33-54.03-60.31h-6.39v80.93h4.35v-65.45h1.93l58.83,67.39Z"/><path class="uuid-8ef25906-d981-4f13-af8c-fefff3c1ed65" d="M422.14,587.5l39.01,84.77h-14.19l-12.63-27.63h-35.57l-13.07,27.63h-7l39.95-84.77h3.5ZM401.2,639.26h30.57l-15.07-32.82-15.5,32.82Z"/><path class="uuid-8ef25906-d981-4f13-af8c-fefff3c1ed65" d="M462.68,673.25h-16.36l-12.63-27.63h-34.31l-13.07,27.63h-9.18l40.87-86.74h4.76l39.91,86.74ZM447.59,671.29h12.02l-38.1-82.8h-2.25l-39.02,82.8h4.83l13.07-27.63h36.82l12.63,27.63ZM433.3,640.25h-33.66l17.07-36.13,16.59,36.13ZM402.75,638.28h27.48l-13.54-29.51-13.94,29.51Z"/><path class="uuid-8ef25906-d981-4f13-af8c-fefff3c1ed65" d="M513.51,593.44c-5,0-9.62.89-13.85,2.66-4.23,1.77-7.88,4.31-10.94,7.63-3.06,3.31-5.45,7.31-7.16,12-1.71,4.69-2.56,9.93-2.56,15.72s.93,11.1,2.78,15.79c1.85,4.69,4.4,8.68,7.63,11.97,3.23,3.29,7.03,5.82,11.41,7.6,4.38,1.77,9.07,2.66,14.07,2.66,3.63,0,6.9-.49,9.81-1.47,2.92-.98,5.54-2.38,7.88-4.22v-29.07h-15.69v-4.94h29.63v36.45c-2.42,1.29-4.86,2.44-7.31,3.44-2.46,1-5.12,1.83-7.97,2.5-2.86.67-5.99,1.18-9.41,1.53-3.42.35-7.29.53-11.63.53-4.59,0-8.94-.51-13.07-1.53s-7.95-2.47-11.47-4.34c-3.52-1.88-6.7-4.12-9.53-6.72-2.84-2.6-5.24-5.49-7.22-8.66-1.98-3.17-3.51-6.56-4.59-10.19-1.08-3.63-1.63-7.4-1.63-11.31s.51-7.66,1.53-11.35c1.02-3.69,2.49-7.17,4.41-10.44,1.92-3.27,4.25-6.26,7-8.97,2.75-2.71,5.86-5.04,9.31-7,3.46-1.96,7.23-3.48,11.32-4.56,4.08-1.08,8.42-1.63,13-1.63s8.43.59,12.16,1.78c3.73,1.19,7.13,2.76,10.19,4.72,3.06,1.96,5.78,4.22,8.16,6.78,2.38,2.56,4.42,5.24,6.13,8.03l-6,4c-3.5-6.71-7.39-11.62-11.66-14.72-4.27-3.1-9.18-4.66-14.72-4.66Z"/><path class="uuid-8ef25906-d981-4f13-af8c-fefff3c1ed65" d="M510.2,675.19c-4.64,0-9.12-.53-13.3-1.56-4.18-1.04-8.12-2.53-11.7-4.43s-6.85-4.21-9.74-6.86c-2.88-2.65-5.37-5.63-7.39-8.86-2.02-3.23-3.6-6.74-4.7-10.43-1.11-3.7-1.67-7.6-1.67-11.6s.53-7.85,1.57-11.61c1.04-3.75,2.55-7.34,4.51-10.67,1.95-3.33,4.36-6.42,7.16-9.17,2.8-2.76,6-5.16,9.52-7.16,3.51-1.99,7.4-3.56,11.55-4.66,4.14-1.1,8.6-1.66,13.25-1.66s8.65.62,12.46,1.83c3.79,1.21,7.3,2.83,10.42,4.83,3.12,2,5.93,4.33,8.35,6.94,2.4,2.59,4.5,5.35,6.24,8.19l.49.81-7.7,5.13-.51-.97c-3.41-6.54-7.24-11.38-11.37-14.38-4.08-2.97-8.84-4.47-14.14-4.47-4.84,0-9.38.87-13.47,2.58-4.08,1.71-7.65,4.2-10.6,7.39-2.96,3.2-5.3,7.13-6.96,11.67-1.66,4.56-2.5,9.73-2.5,15.39s.91,10.87,2.71,15.42c1.8,4.54,4.29,8.46,7.41,11.64,3.12,3.18,6.84,5.66,11.08,7.37,4.24,1.71,8.85,2.58,13.7,2.58,3.5,0,6.7-.48,9.5-1.42,2.64-.89,5.06-2.15,7.21-3.77v-27.6h-15.69v-6.91h31.6v38.02l-.52.28c-2.45,1.31-4.94,2.48-7.41,3.48-2.5,1.02-5.23,1.87-8.12,2.55-2.88.67-6.09,1.19-9.53,1.55-3.43.36-7.38.54-11.73.54ZM509.26,588.48c-4.48,0-8.77.54-12.75,1.59-3.99,1.06-7.72,2.56-11.08,4.47-3.37,1.91-6.43,4.21-9.11,6.85-2.68,2.64-4.98,5.59-6.84,8.77-1.87,3.18-3.31,6.62-4.31,10.21-.99,3.58-1.5,7.31-1.5,11.08s.53,7.52,1.58,11.03c1.05,3.52,2.56,6.87,4.49,9.95,1.92,3.08,4.3,5.93,7.05,8.46,2.76,2.54,5.9,4.75,9.33,6.58,3.43,1.83,7.22,3.26,11.25,4.26,4.03,1,8.35,1.5,12.83,1.5s8.16-.18,11.53-.53c3.36-.35,6.49-.86,9.29-1.51,2.79-.65,5.42-1.48,7.82-2.45,2.23-.91,4.48-1.95,6.7-3.12v-34.87h-27.66v2.97h15.69v30.53l-.38.3c-2.41,1.9-5.16,3.37-8.17,4.38-3,1.01-6.41,1.52-10.13,1.52-5.11,0-9.96-.92-14.44-2.73-4.48-1.81-8.43-4.45-11.74-7.82-3.31-3.37-5.95-7.51-7.84-12.3-1.89-4.78-2.85-10.21-2.85-16.15s.88-11.29,2.62-16.06c1.74-4.79,4.22-8.94,7.36-12.33,3.14-3.4,6.94-6.05,11.28-7.87,4.33-1.81,9.12-2.73,14.23-2.73,5.73,0,10.88,1.63,15.3,4.85,4.17,3.03,8.01,7.77,11.44,14.1l4.3-2.87c-1.57-2.45-3.42-4.82-5.51-7.08-2.31-2.49-4.99-4.72-7.97-6.62-2.98-1.9-6.33-3.45-9.96-4.61-3.62-1.15-7.61-1.73-11.86-1.73Z"/><path class="uuid-8ef25906-d981-4f13-af8c-fefff3c1ed65" d="M621.57,589.38v5.38h-43.7v29.63h29.26v5.38h-29.26v37.13h43.7v5.38h-57.64v-82.89h57.64Z"/><path class="uuid-8ef25906-d981-4f13-af8c-fefff3c1ed65" d="M622.55,673.25h-59.61v-84.86h59.61v7.34h-43.7v27.66h29.26v7.34h-29.26v35.17h43.7v7.34ZM564.91,671.29h55.67v-3.41h-43.7v-39.1h29.26v-3.41h-29.26v-31.6h43.7v-3.41h-55.67v80.93Z"/><path class="uuid-8ef25906-d981-4f13-af8c-fefff3c1ed65" d="M634.11,589.38h14.25l32.26,63.58h.69l31.63-63.58h14v82.89h-14v-67.95h-.44l-34.01,67.95h-2.88l-34.38-67.39h-.94v67.39h-6.19v-82.89Z"/><path class="uuid-8ef25906-d981-4f13-af8c-fefff3c1ed65" d="M727.92,673.25h-15.97v-65.65l-32.85,65.65h-4.09l-33.73-66.12v66.12h-8.16v-84.86h15.84l31.99,63.05,31.37-63.05h15.6v84.86ZM713.92,671.29h12.04v-80.93h-12.41l-31.63,63.58h-1.9l-32.26-63.58h-12.67v80.93h4.22v-67.39h2.52l34.38,67.39h1.67l34.01-67.95h2.03v67.95Z"/><path class="uuid-8ef25906-d981-4f13-af8c-fefff3c1ed65" d="M803.24,589.38v5.38h-43.7v29.63h29.26v5.38h-29.26v37.13h43.7v5.38h-57.64v-82.89h57.64Z"/><path class="uuid-8ef25906-d981-4f13-af8c-fefff3c1ed65" d="M804.23,673.25h-59.61v-84.86h59.61v7.34h-43.7v27.66h29.26v7.34h-29.26v35.17h43.7v7.34ZM746.59,671.29h55.67v-3.41h-43.7v-39.1h29.26v-3.41h-29.26v-31.6h43.7v-3.41h-55.67v80.93Z"/><path class="uuid-8ef25906-d981-4f13-af8c-fefff3c1ed65" d="M815.78,589.38h7.81l54.33,60.64h.63v-60.64h6.13v84.83h-3.25l-58.83-67.39h-.5v65.45h-6.31v-82.89Z"/><path class="uuid-8ef25906-d981-4f13-af8c-fefff3c1ed65" d="M885.66,675.19h-4.68l-57.9-66.32v64.39h-8.28v-84.86h9.24l.29.33,53.23,59.42v-59.75h8.09v86.8ZM881.87,673.22h1.82v-82.86h-4.16v60.64h-2.05l-.29-.33-54.03-60.31h-6.39v80.93h4.35v-65.45h1.93l58.83,67.39Z"/><path class="uuid-8ef25906-d981-4f13-af8c-fefff3c1ed65" d="M968.48,589.38v5.38h-30.01v77.52h-13.94v-77.52h-30.01v-5.38h73.95Z"/><path class="uuid-8ef25906-d981-4f13-af8c-fefff3c1ed65" d="M939.45,673.25h-15.91v-77.52h-30.01v-7.34h75.92v7.34h-30.01v77.52ZM925.51,671.29h11.97v-77.52h30.01v-3.41h-71.99v3.41h30.01v77.52Z"/><circle class="uuid-8ef25906-d981-4f13-af8c-fefff3c1ed65" cx="537.55" cy="914.11" r="10.19"/><path class="uuid-8ef25906-d981-4f13-af8c-fefff3c1ed65" d="M537.55,155.7c-35.52,0-64.42,28.9-64.42,64.42,0,17.66,7.18,33.65,18.73,45.3.12-.12.22-.25.34-.37.36-1.62,1.48-3.04,2.65-4.18,1.37-1.33,2.96-2.43,4.62-3.39-9.46-9.64-15.32-22.82-15.32-37.36,0-29.45,23.96-53.4,53.4-53.4s53.4,23.96,53.4,53.4-23.96,53.4-53.4,53.4c-12.85,0-24.62-4.59-33.84-12.18-2.96,2.37-5.56,5.01-7.76,7.88,11.23,9.54,25.75,15.32,41.6,15.32,35.52,0,64.42-28.9,64.42-64.42s-28.9-64.42-64.42-64.42Z"/><path class="uuid-8ef25906-d981-4f13-af8c-fefff3c1ed65" d="M498.98,318.15c-9.18-7.64-14.83-17.99-14.83-29.38,0-23.46,23.96-42.55,53.4-42.55,18.68,0,35.14,7.69,44.69,19.3,1.13-.95,2.22-1.95,3.29-2.97,1.44-1.68,2.77-3.45,4.09-5.22-11.72-13.38-30.68-22.12-52.07-22.12-35.52,0-64.42,24.03-64.42,53.56,0,13.49,6.04,25.82,15.98,35.25,1.53-1.41,2.98-2.94,4.82-3.95,1.56-.86,3.31-1.41,5.05-1.92Z"/><path class="uuid-8ef25906-d981-4f13-af8c-fefff3c1ed65" d="M592.75,261.2c-2.24,3.07-4.74,5.93-7.48,8.55,3.62,5.73,5.68,12.18,5.68,19.02,0,23.46-23.96,42.55-53.4,42.55-12.8,0-24.55-3.61-33.75-9.62-.57.21-1.14.43-1.69.65-3.77,1.54-6.81,3.31-8.98,5.14,11.57,9.18,27.21,14.84,44.42,14.84,35.52,0,64.42-24.03,64.42-53.56,0-10.08-3.37-19.51-9.22-27.57Z"/><path class="uuid-8ef25906-d981-4f13-af8c-fefff3c1ed65" d="M595.89,319.07c-2.2,2.94-4.7,5.7-7.47,8.25,1.63,1.99,2.53,4.02,2.53,5.97,0,4.78-5.25,10.04-14.04,14.06-10.42,4.77-24.4,7.4-39.36,7.4s-28.94-2.63-39.36-7.4c-8.79-4.03-14.04-9.28-14.04-14.06s5.25-10.04,14.04-14.06c10.42-4.77,24.4-7.4,39.36-7.4s28.94,2.63,39.36,7.4c2.93,1.34,5.45,2.82,7.53,4.37,1.59-1.4,3.15-2.82,4.68-4.29.39-.37.79-.73,1.11-1.17.27-.37.52-.75.78-1.13.35-.51.72-.99,1.15-1.42-11.19-9.02-31.03-14.78-54.61-14.78-36.72,0-64.42,13.96-64.42,32.48s27.69,32.48,64.42,32.48,64.42-13.96,64.42-32.48c0-5.16-2.17-9.97-6.07-14.22Z"/></svg>